<svg height="512" viewBox="0 0 64 64" width="512" xmlns="http://www.w3.org/2000/svg"><g id="Flat"><g id="Color"><g><path d="m20 25h24v32h-24z" fill="#f89c8d"/><path d="m20 25v3h18v3a16 16 0 0 1 -16 16h-2v10h24v-32z" fill="#f8664f"/><path d="m20 57h24a2 2 0 0 1 2 2v2a0 0 0 0 1 0 0h-28a0 0 0 0 1 0 0v-2a2 2 0 0 1 2-2z" fill="#aae1f9"/><rect fill="#aae1f9" height="4" rx="2" width="28" x="18" y="21"/><path d="m28 11-1.791 1.023a10.34 10.34 0 0 0 -5.209 8.977h22a10.34 10.34 0 0 0 -5.209-8.977l-1.791-1.023z" fill="#aae1f9"/><path d="m27 3h10v8h-10z" fill="#f89c8d"/><path d="m40 29h4v24h-4z" fill="#57b7eb"/><path d="m20 29h16v24h-16z" fill="#aae1f9"/><path d="m24 33a7.955 7.955 0 0 0 -4 1.079v13.842a8 8 0 1 0 4-14.921z" fill="#c4f236"/><path d="m27 42a3 3 0 0 1 -6 0c0-3 3-5 3-5s3 2 3 5z" fill="#aae1f9"/><path d="m33.91 3a6 6 0 0 1 -5.91 5h-1v3h10v-8z" fill="#f8664f"/><g fill="#57b7eb"><path d="m37.791 12.023-1.791-1.023h-1.641a3.446 3.446 0 0 1 -.843 3.484 12 12 0 0 1 -8.488 3.516h-3.567a10.307 10.307 0 0 0 -.461 3h22a10.34 10.34 0 0 0 -5.209-8.977z"/><path d="m44 21h-1a2 2 0 0 1 -2 2h-23a2 2 0 0 0 2 2h24a2 2 0 0 0 0-4z"/><path d="m44 57h-.184a2.99 2.99 0 0 1 -2.816 2h-23v2h28v-2a2 2 0 0 0 -2-2z"/><path d="m36 38.74a15.99 15.99 0 0 1 -14 8.26h-2v6h16z"/></g><path d="m31.451 43.9a15.9 15.9 0 0 1 -9.451 3.1h-2v.921a7.981 7.981 0 0 0 11.451-4.021z" fill="#a1d51c"/><path d="m24 37-.014.009a5.275 5.275 0 0 1 1.014 2.991 2.96 2.96 0 0 1 -3.86 2.86 2.992 2.992 0 0 0 5.86-.86c0-3-3-5-3-5z" fill="#57b7eb"/><g fill="#cc5144"><path d="m38 12h-12a1 1 0 0 1 0-2h12a1 1 0 0 1 0 2z"/><circle cx="32" cy="7" r="1"/></g></g></g></g></svg>