<svg height="512" viewBox="0 0 64 64" width="512" xmlns="http://www.w3.org/2000/svg"><g id="Flat"><g id="Color"><g><path d="m15 3h34a3 3 0 0 1 3 3v5a0 0 0 0 1 0 0h-36a4 4 0 0 1 -4-4v-1a3 3 0 0 1 3-3z" fill="#f9e109"/><path d="m52 11a116.923 116.923 0 0 1 6 36.974v13.026h-36v-13.026a116.923 116.923 0 0 0 -6-36.974z" fill="#e59730"/><path d="m58 47.974a116.923 116.923 0 0 0 -6-36.974h-.231a20.079 20.079 0 0 1 .2 7.135 30.6 30.6 0 0 0 -.358 9.788l.389 3.077.259 1.816a30.542 30.542 0 0 1 -.286 10.319 30.6 30.6 0 0 0 -.358 9.788l.385 3.077.259 1.816a30.625 30.625 0 0 1 .267 3.184h5.474z" fill="#fcbc04"/><path d="m16 11a116.923 116.923 0 0 0 -6 36.974v13.026h36v-13.026a116.923 116.923 0 0 1 6-36.974z" fill="#f9e109"/><path d="m16 11c-.221.663-.413 1.334-.622 2h23.686a4 4 0 0 1 3.853 5.051 117.074 117.074 0 0 0 -3.047 15.756 16.047 16.047 0 0 1 -15.889 14.167h-13.981v13.026h36v-13.026a116.923 116.923 0 0 1 6-36.974z" fill="#fcbc04"/><path d="m58 61h-12l6-5z" fill="#f9e109"/><path d="m49 3a3 3 0 0 1 3 3v5a0 0 0 0 1 0 0h-3a3 3 0 0 1 -3-3v-2a3 3 0 0 1 3-3z" fill="#e59730"/><path d="m17.159 32a110.85 110.85 0 0 0 -1.159 15.974v7.026h24v-7.026a122.951 122.951 0 0 1 1.045-15.974z" fill="#c4f236"/><path d="m20 47h16v4h-16z" fill="#c4f236"/><path d="m40 47.974a122.951 122.951 0 0 1 1.045-15.974h-.921c-.084.6-.18 1.2-.254 1.807a16.047 16.047 0 0 1 -15.889 14.167h-7.981v7.026h24z" fill="#a1d51c"/><g fill="#57b7eb"><path d="m26 38h-5a1 1 0 0 1 0-2h5a1 1 0 0 1 0 2z"/><path d="m34 43h-13a1 1 0 0 1 0-2h13a1 1 0 0 1 0 2z"/><path d="m35 38h-2a1 1 0 0 1 0-2h2a1 1 0 0 1 0 2z"/></g><path d="m49.445 6.168a1 1 0 1 0 1.11 1.664.908.908 0 0 1 1.227.21l.218.291v-2.333c0-.054-.013-.1-.016-.158a2.9 2.9 0 0 0 -2.539.326z" fill="#fcbc04"/></g></g></g></svg>