<svg height="512" viewBox="0 0 64 64" width="512" xmlns="http://www.w3.org/2000/svg"><g id="Flat"><g id="Color"><g><g><path d="m9 17h52v38h-52z" fill="#c4f236"/><path d="m56 17a6 6 0 0 1 -6 6h-41v32h52v-38z" fill="#a1d51c"/><path d="m20 17h30v38h-30z" fill="#57b7eb"/><path d="m55 27h6v18h-6z" fill="#57b7eb"/><path d="m20 17h30v6h-30z" fill="#aae1f9"/><path d="m57 27h2v18h-2z" fill="#aae1f9"/><path d="m44 24h-20a1 1 0 0 1 0-2h20a1 1 0 0 1 0 2z" fill="#f9e109"/><path d="m24 24h20a1 1 0 0 0 1-1h-22a1 1 0 0 0 1 1z" fill="#fcbc04"/></g><g><rect fill="#f9e109" height="34" rx="8" width="48" x="3" y="27"/><path d="m43 27h-2v6a19 19 0 0 1 -19 19h-19v1a8 8 0 0 0 8 8h32a8 8 0 0 0 8-8v-18a8 8 0 0 0 -8-8z" fill="#fcbc04"/><rect fill="#fcbc04" height="24" rx="4" width="38" x="8" y="32"/><path d="m42 32h-30a4 4 0 0 0 -4 4v16a4 4 0 0 0 4 4h30a4 4 0 0 0 4-4v-16a4 4 0 0 0 -4-4zm-21 19h-11v-11a6 6 0 0 1 6-6h23.893a19 19 0 0 1 -18.893 17z" fill="#e59730"/><circle cx="39" cy="39" fill="#57b7eb" r="3"/><circle cx="38" cy="48" fill="#4891d3" r="2"/><circle cx="31" cy="42" fill="#57b7eb" r="2"/><circle cx="37.586" cy="37.586" fill="#aae1f9" r="1"/><circle cx="30.293" cy="41.293" fill="#aae1f9" r="1"/><circle cx="37.293" cy="47.293" fill="#57b7eb" r="1"/><path d="m39.551 36.056a18.827 18.827 0 0 1 -2.139 5.48 2.995 2.995 0 1 0 2.139-5.48z" fill="#4891d3"/><circle cx="32" cy="49" fill="#57b7eb" r="1"/><path d="m21 52h-4a5.006 5.006 0 0 1 -5-5v-5a1 1 0 0 1 2 0v5a3 3 0 0 0 3 3h4a1 1 0 0 1 0 2z" fill="#f9e109"/><path d="m21 52a1 1 0 0 0 1-1c0-.017-.009-.03-.009-.047-.33.017-.657.047-.991.047h-6.969a4.952 4.952 0 0 0 2.969 1z" fill="#fcbc04"/></g></g></g></g></svg>