<svg height="512" viewBox="0 0 64 64" width="512" xmlns="http://www.w3.org/2000/svg"><g id="Flat"><g id="Color"><g><g><path d="m17 3h30v30h-30z" fill="#fcbc04" transform="matrix(-1 0 0 -1 64 36)"/><path d="m43 13v-10h4v30h-30v-10h16a10 10 0 0 0 10-10z" fill="#e59730"/><path d="m27 3h10v9l-3-3-2 3-2-3-3 3z" fill="#f9e109"/><path d="m21 18h6v4h-6z" fill="#aae1f9"/><path d="m21 20h6v2h-6z" fill="#57b7eb"/><path d="m43 19h-3a1 1 0 0 1 0-2h3a1 1 0 0 1 0 2z" fill="#aae1f9"/><path d="m43 24h-6a1 1 0 0 1 0-2h6a1 1 0 0 1 0 2z" fill="#aae1f9"/><g fill="#57b7eb"><path d="m44 18a1 1 0 0 0 -1-1h-.838a9.983 9.983 0 0 1 -1.176 2h2.014a1 1 0 0 0 1-1z"/><path d="m37 24h6a1 1 0 0 0 0-2h-5.663a9.9 9.9 0 0 1 -1.17.48.967.967 0 0 0 -.167.52 1 1 0 0 0 1 1z"/></g></g><g><path d="m57 37a1 1 0 0 1 -.8-.4l-6-8a1 1 0 0 1 1.6-1.2l6 8a1 1 0 0 1 -.8 1.6z" fill="#e59730"/><path d="m7 37a1 1 0 0 1 -.8-1.6l6-8a1 1 0 0 1 1.6 1.2l-6 8a1 1 0 0 1 -.8.4z" fill="#fcbc04"/><path d="m13 27h38v34h-38z" fill="#fcbc04" transform="matrix(-1 0 0 -1 64 88)"/><path d="m51 27v2l-4 8h-30l-4-10z" fill="#e59730"/><path d="m28 57a17 17 0 0 0 17-17v-13h6v34h-38v-4z" fill="#e59730"/><g fill="#f9e109"><path d="m17 35h30l4-8h-38z"/><path d="m38 35h-12v6l3-2 3 2 3-2 3 2z"/><path d="m26 61h12v-8l-3 2-3-2-3 2-3-2z"/></g><path d="m13 44h6v4h-6z" fill="#aae1f9" transform="matrix(-1 0 0 -1 32 92)"/><path d="m45 44h6v4h-6z" fill="#57b7eb" transform="matrix(-1 0 0 -1 96 92)"/><path d="m26 35h12v2h-12z" fill="#fcbc04" transform="matrix(-1 0 0 -1 64 72)"/><path d="m51 53h-5a1 1 0 0 1 0-2h5z" fill="#57b7eb"/><path d="m13 51h5a1 1 0 0 1 0 2h-5z" fill="#aae1f9"/><path d="m28 57h-2v4h12v-7.274a16.9 16.9 0 0 1 -10 3.274z" fill="#fcbc04"/></g></g></g></g></svg>