<svg height="512" viewBox="0 0 64 64" width="512" xmlns="http://www.w3.org/2000/svg"><g id="Flat"><g id="Color"><g><path d="m29 9a1 1 0 0 1 -.9-.553l-1.5-3.011a.785.785 0 0 0 -.7-.436.79.79 0 0 0 -.707 1.142l.707 1.411a1 1 0 1 1 -1.79.894l-.71-1.411a2.789 2.789 0 0 1 4.99-2.494l1.51 3.011a1 1 0 0 1 -.9 1.447z" fill="#57b7eb"/><path d="m45 57h-26l-4-4v-36l4-4v-2h26v2l4 4v36z" fill="#f8664f"/><path d="m45 13v-2h-26v2h18a4 4 0 0 1 4 4h-26v36l4 4h26l4-4v-36z" fill="#cc5144"/><path d="m15 17h34v36h-34z" fill="#f89c8d"/><path d="m41 17v3a26 26 0 0 1 -26 26v7h34v-36z" fill="#f8664f"/><rect fill="#aae1f9" height="4" rx="2" width="32" x="16" y="57"/><rect fill="#aae1f9" height="4" rx="2" width="30" x="17" y="7"/><path d="m15 50.565 34-8.13v-24l-34 8.13z" fill="#c4f236"/><path d="m15 46v4.565l34-8.13v-24l-8.009 1.915a26 26 0 0 1 -25.991 25.65z" fill="#a1d51c"/><path d="m23 30.878 18-4.305v7.549l-18 4.305z" fill="#f89c8d"/><path d="m36 35.319 5-1.2v-7.546l-.9.216a25.913 25.913 0 0 1 -4.1 8.53z" fill="#f8664f"/><g fill="#57b7eb"><path d="m45 7a2 2 0 0 1 -2 2h-26a2 2 0 0 0 2 2h26a2 2 0 0 0 0-4z"/><path d="m46 57a2 2 0 0 1 -2 2h-28a2 2 0 0 0 2 2h28a2 2 0 0 0 0-4z"/><path d="m27 43.47a1 1 0 0 1 -.231-1.972l10-2.392a1 1 0 1 1 .464 1.945l-10 2.392a1.036 1.036 0 0 1 -.233.027z"/></g><path d="m26.5 43.319a.987.987 0 0 0 .5.151 1.036 1.036 0 0 0 .233-.027l10-2.392a1 1 0 1 0 -.464-1.945l-5.769 1.38a26.019 26.019 0 0 1 -4.5 2.833z" fill="#4891d3"/></g></g></g></svg>