<svg height="512" viewBox="0 0 64 64" width="512" xmlns="http://www.w3.org/2000/svg"><g id="Flat"><g id="Color"><g><path d="m55 55-8 6v-44l8-4z" fill="#4891d3"/><path d="m47 17 4-8 4 4z" fill="#2d72bc"/><path d="m15 17h32v44h-32z" fill="#aae1f9"/><path d="m47 17h-32l4-8h32z" fill="#aae1f9"/><path d="m19 3h32v6h-32z" fill="#57b7eb"/><path d="m55 55-8 6v-18l8-6z" fill="#a1d51c"/><circle cx="31" cy="32" fill="#c4f236" r="7"/><path d="m32.918 25.273a6.987 6.987 0 0 1 -7.836 10.454 7 7 0 1 0 7.836-10.454z" fill="#a1d51c"/><path d="m40 28v13a12 12 0 0 1 -12 12h-13v8h32v-40a7 7 0 0 0 -7 7z" fill="#57b7eb"/><path d="m19 45h24v12h-24z" fill="#c4f236"/><path d="m28 53h-9v4h24v-12h-3.7a11.994 11.994 0 0 1 -11.3 8z" fill="#a1d51c"/><path d="m46.987 9a14.466 14.466 0 0 1 -10.931 5h-19.556l-1.5 3h32l4-8z" fill="#57b7eb"/><path d="m48 3a4 4 0 0 1 -4 4h-25v2h32v-6z" fill="#4891d3"/><g fill="#f9e109"><path d="m36 50h-13a1 1 0 0 1 0-2h13a1 1 0 0 1 0 2z"/><path d="m30 54h-7a1 1 0 0 1 0-2h7a1 1 0 0 1 0 2z"/></g></g><g fill="#fcbc04"><path d="m37 49c0-.023-.011-.042-.013-.064a12.107 12.107 0 0 1 -1.073 1.064h.086a1 1 0 0 0 1-1z"/><path d="m23 54h7a.991.991 0 0 0 .927-1.364 11.968 11.968 0 0 1 -2.927.364h-6a1 1 0 0 0 1 1z"/></g></g></g></svg>