<svg height="512" viewBox="0 0 64 64" width="512" xmlns="http://www.w3.org/2000/svg"><g id="Flat"><g id="Color"><g><path d="m17 19h30a6 6 0 0 1 6 6v28a4 4 0 0 1 -4 4h-34a4 4 0 0 1 -4-4v-28a6 6 0 0 1 6-6z" fill="#aae1f9"/><path d="m47 19h-5v4a25 25 0 0 1 -25 25h-6v5a4 4 0 0 0 4 4h34a4 4 0 0 0 4-4v-28a6 6 0 0 0 -6-6z" fill="#57b7eb"/><path d="m18 11h28v8h-28z" fill="#57b7eb"/><path d="m47 7v-3a1 1 0 0 0 -1-1h-28a1 1 0 0 0 -1 1v3h-2a1 1 0 0 0 -1 1v3h36v-3a1 1 0 0 0 -1-1z" fill="#f9e109"/><path d="m15 57h34v4h-34z" fill="#57b7eb"/><path d="m53 32h-6.25a1.751 1.751 0 0 1 -1.75-1.75 1.751 1.751 0 0 0 -1.75-1.75h-.5a1.751 1.751 0 0 1 -1.75-1.75 2.75 2.75 0 0 0 -2.75-2.75h-12.5a2.75 2.75 0 0 0 -2.75 2.75 1.751 1.751 0 0 1 -1.75 1.75h-.5a1.751 1.751 0 0 0 -1.75 1.75 1.751 1.751 0 0 1 -1.75 1.75h-6.25v12h6.25a1.751 1.751 0 0 1 1.75 1.75 1.751 1.751 0 0 0 1.75 1.75h.5a1.751 1.751 0 0 1 1.75 1.75 2.75 2.75 0 0 0 2.75 2.75h12.5a2.75 2.75 0 0 0 2.75-2.75 1.751 1.751 0 0 1 1.75-1.75h.5a1.751 1.751 0 0 0 1.75-1.75 1.751 1.751 0 0 1 1.75-1.75h6.25z" fill="#f9e109"/><path d="m18 11v2h24a2 2 0 0 1 -2 2h-22v4h28v-8z" fill="#4891d3"/><path d="m45 30.25a1.751 1.751 0 0 0 -1.75-1.75h-.5a1.743 1.743 0 0 1 -1.247-.524 25.021 25.021 0 0 1 -19.83 19.581 1.747 1.747 0 0 1 1.327 1.693 2.75 2.75 0 0 0 2.75 2.75h12.5a2.75 2.75 0 0 0 2.75-2.75 1.751 1.751 0 0 1 1.75-1.75h.5a1.751 1.751 0 0 0 1.75-1.75 1.751 1.751 0 0 1 1.75-1.75h6.25v-12h-6.25a1.751 1.751 0 0 1 -1.75-1.75z" fill="#fcbc04"/><path d="m22 33h20v6h-20z" fill="#c4f236"/><path d="m36.187 39h5.813v-6h-2.093a24.951 24.951 0 0 1 -3.72 6z" fill="#a1d51c"/><path d="m15 57v2h29a2.99 2.99 0 0 1 2.816 2h2.184v-4z" fill="#4891d3"/><g fill="#fcbc04"><path d="m46 3h-2.184a2.99 2.99 0 0 1 -2.816 2h-24v2h30v-3a1 1 0 0 0 -1-1z"/><path d="m49 7h-2a2 2 0 0 1 -2 2h-31v2h36v-3a1 1 0 0 0 -1-1z"/></g><path d="m47 16h-30a1 1 0 0 1 0-2h30a1 1 0 0 1 0 2z" fill="#aae1f9"/><path d="m39 44h-14a1 1 0 0 1 0-2h14a1 1 0 0 1 0 2z" fill="#c4f236"/><g fill="#a1d51c"><path d="m37 48h-10a1 1 0 0 1 0-2h10a1 1 0 0 1 0 2z"/><path d="m39 42h-5.759a25.063 25.063 0 0 1 -2.7 2h8.459a1 1 0 0 0 0-2z"/></g></g></g></g></svg>