<svg height="512" viewBox="0 0 64 64" width="512" xmlns="http://www.w3.org/2000/svg"><g id="Flat"><g id="Color"><g><path d="m16 13h32v48h-32z" fill="#aae1f9"/><path d="m41 13v21a20 20 0 0 1 -20 20h-5v7h32v-48z" fill="#57b7eb"/><path d="m12 3v4h6a2 2 0 0 1 2 2v4h4v-4a6 6 0 0 0 -6-6z" fill="#f9e109"/><g><path d="m29 21h6a8 8 0 0 1 8 8 0 0 0 0 1 0 0h-6a8 8 0 0 1 -8-8 0 0 0 0 1 0 0z" fill="#a1d51c"/><path d="m34 24a8 8 0 0 1 7.413 5h1.587a8 8 0 0 0 -8-8h-6v.032a3.052 3.052 0 0 0 3.09 2.968z" fill="#c4f236"/><path d="m40.1 28.824a1 1 0 0 1 -.764-.353 6.983 6.983 0 0 0 -5.336-2.471 1 1 0 0 1 0-2 8.978 8.978 0 0 1 6.857 3.177 1 1 0 0 1 -.761 1.647z" fill="#7ab92d"/><path d="m41 28.164a7.912 7.912 0 0 1 .413.836h1.587a7.959 7.959 0 0 0 -2-5.279z" fill="#a1d51c"/><path d="m42.768 17.33a2 2 0 0 1 2 2v8a0 0 0 0 1 0 0h-4a0 0 0 0 1 0 0v-8a2 2 0 0 1 2-2z" fill="#c4f236" transform="matrix(.866 -.5 .5 .866 -5.435 24.376)"/><path d="m41 17.752v5.516l2.536 4.392 3.464-2-4-6.928a2 2 0 0 0 -2-.98z" fill="#a1d51c"/><path d="m43 18.732a2 2 0 0 0 -1.99-.983l1.99 3.451a3.986 3.986 0 0 1 -.5 4.663l1.04 1.8 3.464-2z" fill="#7ab92d"/><path d="m48 61a18 18 0 0 1 0-36z" fill="#f9e109"/><path d="m41 34a19.967 19.967 0 0 1 -9.2 16.814 17.982 17.982 0 0 0 16.2 10.186v-36a17.946 17.946 0 0 0 -7 1.412z" fill="#fcbc04"/><g><path d="m48 43-7.48-7.48a3.013 3.013 0 0 0 -4.764.685 13.966 13.966 0 0 0 -1.262 3.1 2.978 2.978 0 0 0 2.918 3.695z" fill="#e59730"/><path d="m44.3 29.494a13.966 13.966 0 0 0 -3.1 1.262 3.013 3.013 0 0 0 -.685 4.764l7.485 7.48v-10.588a2.978 2.978 0 0 0 -3.7-2.918z" fill="#e59730"/><path d="m34.494 46.7a13.966 13.966 0 0 0 1.262 3.1 3.013 3.013 0 0 0 4.764.685l7.48-7.485h-10.588a2.978 2.978 0 0 0 -2.918 3.7z" fill="#e59730"/><path d="m41.205 55.244a13.966 13.966 0 0 0 3.1 1.262 2.978 2.978 0 0 0 3.695-2.918v-10.588l-7.48 7.48a3.013 3.013 0 0 0 .685 4.764z" fill="#e59730"/><g fill="#fcbc04"><path d="m45.051 54.607a.866.866 0 0 1 -.223-.03 11.971 11.971 0 0 1 -2.651-1.077 1.017 1.017 0 0 1 -.525-.76.973.973 0 0 1 .282-.84l4.066-4.071v5.759a1.036 1.036 0 0 1 -.3.732.93.93 0 0 1 -.646.287z"/><path d="m40.9 35.9-.384-.384a3.013 3.013 0 0 0 -4.764.685 13.966 13.966 0 0 0 -1.262 3.1 2.978 2.978 0 0 0 2.922 3.699h1.431a19.851 19.851 0 0 0 2.057-7.1z"/><path d="m41 30.905a3 3 0 0 0 -.48 4.615l.384.384c.059-.627.1-1.261.1-1.9z"/><path d="m38.843 43h-1.431a2.978 2.978 0 0 0 -2.918 3.7 13.9 13.9 0 0 0 .527 1.553 20.037 20.037 0 0 0 3.822-5.253z"/><path d="m37.412 41a1.042 1.042 0 0 1 -.828-.413.85.85 0 0 1 -.161-.758 11.893 11.893 0 0 1 1.082-2.651 1.021 1.021 0 0 1 .9-.536.963.963 0 0 1 .7.292l4.067 4.066z"/><path d="m41.934 34.1a.973.973 0 0 1 -.282-.84 1.019 1.019 0 0 1 .526-.761 12 12 0 0 1 2.649-1.081.88.88 0 0 1 .224-.03 1.011 1.011 0 0 1 .949 1.024v5.759z"/><path d="m38.408 49.358a1.021 1.021 0 0 1 -.9-.535 11.919 11.919 0 0 1 -1.081-2.651.848.848 0 0 1 .16-.759 1.042 1.042 0 0 1 .825-.413h5.76l-4.072 4.066a.967.967 0 0 1 -.7.292z"/></g><path d="m39.709 41a19.951 19.951 0 0 0 .792-2.671l-1.4-1.4a.963.963 0 0 0 -.7-.292 1.021 1.021 0 0 0 -.9.536 11.893 11.893 0 0 0 -1.082 2.651.85.85 0 0 0 .161.758 1.042 1.042 0 0 0 .828.413z" fill="#f9e109"/><path d="m37.412 45a1.042 1.042 0 0 0 -.828.413.848.848 0 0 0 -.16.759c.034.125.086.243.124.366q.6-.741 1.119-1.538z" fill="#f9e109"/></g><circle cx="44" cy="33" fill="#e59730" r="1"/><circle cx="39" cy="39" fill="#fcbc04" r="1"/><circle cx="39" cy="47" fill="#e59730" r="1"/><circle cx="44" cy="52" fill="#e59730" r="1"/><g fill="#f9e109"><path d="m25 27h-5a1 1 0 0 1 0-2h5a1 1 0 0 1 0 2z"/><path d="m28 32h-8a1 1 0 0 1 0-2h8a1 1 0 0 1 0 2z"/><path d="m23 36h-3a1 1 0 0 1 0-2h3a1 1 0 0 1 0 2z"/><path d="m23 40h-3a1 1 0 0 1 0-2h3a1 1 0 0 1 0 2z"/></g></g><path d="m20 53h8v4h-8z" fill="#f9e109"/><path d="m28 53h-.777a19.946 19.946 0 0 1 -6.223 1h-1v3h8z" fill="#fcbc04"/><path d="m20.757 3.674a5.971 5.971 0 0 1 -3.757 1.326h-5v2h6a2 2 0 0 1 2 2v4h4v-4a6 6 0 0 0 -3.243-5.326z" fill="#fcbc04"/><path d="m22.887 5.527a6.045 6.045 0 0 0 -1.414-1.414l-2.473 2.473v-3.496a6 6 0 0 0 -1-.09h-1v4h1a2 2 0 0 1 2 2v1h4v-1a6 6 0 0 0 -.09-1h-3.5z" fill="#e59730"/><path d="m19 3.09a6 6 0 0 0 -1-.09h-1v2a5.968 5.968 0 0 0 2-.345z" fill="#fcbc04"/></g></g></g></svg>