<svg height="512" viewBox="0 0 64 64" width="512" xmlns="http://www.w3.org/2000/svg"><g id="Flat"><g id="Color"><g><path d="m21 12a1 1 0 0 1 -.8-1.6l3-4a1 1 0 0 1 .8-.4h7a1 1 0 0 1 0 2h-6.5l-2.7 3.6a1 1 0 0 1 -.8.4z" fill="#57b7eb"/><rect fill="#57b7eb" height="36" rx="4" width="22" x="21" y="25"/><path d="m39 25h-1v18a14 14 0 0 1 -14 14h-3a4 4 0 0 0 4 4h14a4 4 0 0 0 4-4v-28a4 4 0 0 0 -4-4z" fill="#4891d3"/><path d="m30 13h4v6h-4z" fill="#aae1f9"/><path d="m28 19h8a2 2 0 0 1 2 2v4a0 0 0 0 1 0 0h-12a0 0 0 0 1 0 0v-4a2 2 0 0 1 2-2z" fill="#c4f236"/><path d="m35 3h-6v10h6v-4l2-3v-3z" fill="#c4f236"/><path d="m26 25a9.468 9.468 0 0 0 -1 4.236v27.528a9.468 9.468 0 0 0 1 4.236h4a9.468 9.468 0 0 1 -1-4.236v-27.528a9.468 9.468 0 0 1 1-4.236z" fill="#aae1f9"/><path d="m21 34h22v16h-22z" fill="#c4f236"/><circle cx="32" cy="42" fill="#aae1f9" r="4"/><path d="m29 56.064a13.886 13.886 0 0 1 -3.989.885 9.455 9.455 0 0 0 .989 4.051h4a9.468 9.468 0 0 1 -1-4.236z" fill="#57b7eb"/><path d="m38 43a13.915 13.915 0 0 1 -1.888 7h6.888v-16h-5z" fill="#a1d51c"/><path d="m33.64 38.36a3.985 3.985 0 0 1 -5.28 5.28 3.995 3.995 0 1 0 5.28-5.28z" fill="#57b7eb"/><path d="m36 19h-1a4 4 0 0 1 -4 4h-5v2h12v-4a2 2 0 0 0 -2-2z" fill="#a1d51c"/><path d="m30 13v1h2v2a2 2 0 0 1 -2 2v1h4v-6z" fill="#57b7eb"/><path d="m35 3v2.535a1.537 1.537 0 0 1 -.258.852l-1.484 2.226a1.537 1.537 0 0 0 -.258.852 1.535 1.535 0 0 1 -1.535 1.535h-2.465v2h6v-4l2-3v-3z" fill="#a1d51c"/></g></g></g></svg>