<svg height="512" viewBox="0 0 64 64" width="512" xmlns="http://www.w3.org/2000/svg"><g id="Flat"><g id="Color"><g><path d="m16 15h32v6h-32z" fill="#4891d3"/><rect fill="#aae1f9" height="42" rx="6" width="42" x="11" y="19"/><path d="m47 19h-4v3a26 26 0 0 1 -26 26h-6v7a6 6 0 0 0 6 6h30a6 6 0 0 0 6-6v-30a6 6 0 0 0 -6-6z" fill="#57b7eb"/><rect fill="#c4f236" height="12" rx="2" width="40" x="12" y="3"/><path d="m11 28h42v24h-42z" fill="#f89c8d"/><path d="m50 3h-3.069a8 8 0 0 1 -7.931 7h-27v3a2 2 0 0 0 2 2h36a2 2 0 0 0 2-2v-8a2 2 0 0 0 -2-2z" fill="#a1d51c"/><path d="m17 48h-6v4h42v-24h-10.7a26 26 0 0 1 -25.3 20z" fill="#f8664f"/><path d="m40 37h-5v-5h-6v5h-5v6h5v5h6v-5h5z" fill="#c4f236"/><path d="m35 43h5v-6h-1.794a26.093 26.093 0 0 1 -9.206 8.046v2.954h6z" fill="#a1d51c"/><path d="m17 3v3a1 1 0 0 1 -2 0v-3z" fill="#a1d51c"/><path d="m17 12v3h-2v-3a1 1 0 0 1 2 0z" fill="#7ab92d"/><path d="m21 3v3a1 1 0 0 1 -2 0v-3z" fill="#a1d51c"/><path d="m21 12v3h-2v-3a1 1 0 0 1 2 0z" fill="#7ab92d"/><path d="m25 3v3a1 1 0 0 1 -2 0v-3z" fill="#a1d51c"/><path d="m25 12v3h-2v-3a1 1 0 0 1 2 0z" fill="#7ab92d"/><path d="m29 3v3a1 1 0 0 1 -2 0v-3z" fill="#a1d51c"/><path d="m29 12v3h-2v-3a1 1 0 0 1 2 0z" fill="#7ab92d"/><path d="m33 3v3a1 1 0 0 1 -2 0v-3z" fill="#a1d51c"/><path d="m33 12v3h-2v-3a1 1 0 0 1 2 0z" fill="#7ab92d"/><path d="m37 3v3a1 1 0 0 1 -2 0v-3z" fill="#a1d51c"/><path d="m37 12v3h-2v-3a1 1 0 0 1 2 0z" fill="#7ab92d"/><path d="m41 3v3a1 1 0 0 1 -2 0v-3z" fill="#a1d51c"/><path d="m41 12v3h-2v-3a1 1 0 0 1 2 0z" fill="#7ab92d"/><path d="m45 3v3a1 1 0 0 1 -2 0v-3z" fill="#a1d51c"/><g fill="#7ab92d"><path d="m45 12v3h-2v-3a1 1 0 0 1 2 0z"/><path d="m49 3v3a1 1 0 0 1 -2 0v-3z"/><path d="m49 12v3h-2v-3a1 1 0 0 1 2 0z"/><path d="m29 12v3h-2v-3a1 1 0 0 1 2 0z"/><path d="m33 12v3h-2v-3a1 1 0 0 1 2 0z"/><path d="m37 12v3h-2v-3a1 1 0 0 1 2 0z"/><path d="m41 12v3h-2v-3a1 1 0 0 1 2 0z"/><path d="m45 12v3h-2v-3a1 1 0 0 1 2 0z"/><path d="m17 12v3h-2v-3a1 1 0 0 1 2 0z"/><path d="m21 12v3h-2v-3a1 1 0 0 1 2 0z"/><path d="m25 12v3h-2v-3a1 1 0 0 1 2 0z"/><path d="m49 12v3h-2v-3a1 1 0 0 1 2 0z"/></g><path d="m29 3v3a1 1 0 0 1 -2 0v-3z" fill="#a1d51c"/><path d="m33 3v3a1 1 0 0 1 -2 0v-3z" fill="#a1d51c"/><path d="m37 3v3a1 1 0 0 1 -2 0v-3z" fill="#a1d51c"/><path d="m41 3v3a1 1 0 0 1 -2 0v-3z" fill="#a1d51c"/><path d="m45 3v3a1 1 0 0 1 -2 0v-3z" fill="#a1d51c"/><path d="m17 3v3a1 1 0 0 1 -2 0v-3z" fill="#a1d51c"/><path d="m21 3v3a1 1 0 0 1 -2 0v-3z" fill="#a1d51c"/><path d="m25 3v3a1 1 0 0 1 -2 0v-3z" fill="#a1d51c"/><path d="m49 3v3a1 1 0 0 1 -2 0v-3z" fill="#7ab92d"/><path d="m19 33h-4a1 1 0 0 1 0-2h4a1 1 0 0 1 0 2z" fill="#57b7eb"/><path d="m18 37h-3a1 1 0 0 1 0-2h3a1 1 0 0 1 0 2z" fill="#57b7eb"/><path d="m49 49h-4a1 1 0 0 1 0-2h4a1 1 0 0 1 0 2z" fill="#4891d3"/><path d="m49 45h-2a1 1 0 0 1 0-2h2a1 1 0 0 1 0 2z" fill="#4891d3"/></g></g></g></svg>