<svg height="512" viewBox="0 0 64 64" width="512" xmlns="http://www.w3.org/2000/svg"><g id="Flat"><g id="Color"><g><path d="m40 13h-16l-7 6v42h30v-42z" fill="#57b7eb"/><path d="m40 13h-16l-3.5 3h12.945a5.555 5.555 0 0 1 5.555 5.555v15.445a16 16 0 0 1 -16 16h-6v8h30v-42z" fill="#4891d3"/><path d="m22 9h20v4h-20z" fill="#aae1f9"/><path d="m23.5 3h17v6h-17z" fill="#c4f236"/><path d="m22 22h20v34h-20z" fill="#c4f236"/><path d="m37.9 3a5 5 0 0 1 -4.9 4h-9.5v2h17v-6z" fill="#a1d51c"/><path d="m39.816 9a2.99 2.99 0 0 1 -2.816 2h-15v2h20v-4z" fill="#57b7eb"/><path d="m39 22v15a16 16 0 0 1 -16 16h-1v3h20v-34z" fill="#a1d51c"/><g fill="#fcbc04"><path d="m36 37a1 1 0 0 1 -1-1v-3.234l-2.132 3.734a1.04 1.04 0 0 1 -1.736 0l-2.132-3.734v3.234a1 1 0 0 1 -2 0v-7a1 1 0 0 1 1.868-.5l3.132 5.484 3.132-5.48a1 1 0 0 1 1.868.496v7a1 1 0 0 1 -1 1z"/><path d="m36 42h-8a1 1 0 0 1 0-2h8a1 1 0 0 1 0 2z"/><path d="m34 46h-4a1 1 0 0 1 0-2h4a1 1 0 0 1 0 2z"/><path d="m33 50h-2a1 1 0 0 1 0-2h2a1 1 0 0 1 0 2z"/></g><path d="m33 50a1 1 0 0 0 1-1 .984.984 0 0 0 -.068-.339 16.1 16.1 0 0 1 -1.632 1.339z" fill="#e59730"/></g></g></g></svg>