<svg height="512" viewBox="0 0 64 64" width="512" xmlns="http://www.w3.org/2000/svg"><g id="Flat"><g id="Color"><g><path d="m23 28h-12l2-17h8z" fill="#57b7eb"/><path d="m21 11h-8l-.235 2h2.407a2 2 0 0 1 1.414 3.414l-4.786 4.786-.8 6.8h12z" fill="#4891d3"/><path d="m12 3h10v8h-10z" fill="#f9e109"/><path d="m41.014 5h-8.2l-21.814 23v29a4 4 0 0 0 4 4h34a4 4 0 0 0 4-4v-37.654zm-10.922 16.924-1.045-3.5 6.14-9.424h3.8l10.013 11.654v5.412z" fill="#aae1f9"/><path d="m41.014 5 8.944 13.126a6 6 0 0 1 1.042 3.374v2.5a6 6 0 0 1 -6 6h-3.71a26 26 0 0 1 -25.29 20h-5v7a4 4 0 0 0 4 4h34a4 4 0 0 0 4-4v-37.654z" fill="#57b7eb"/><path d="m41 55h-24v-23l7.271-6 22.729 5v18z" fill="#f9e109"/><path d="m41.29 30a25.985 25.985 0 0 1 -24.29 19.957v5.043h24l6-6v-18l-4.546-1z" fill="#fcbc04"/><path d="m37 42a5 5 0 0 1 -10 0c0-2.761 5-9 5-9s5 6.239 5 9z" fill="#aae1f9"/><path d="m29.4 46.252a4.976 4.976 0 0 0 7.6-4.252 5.54 5.54 0 0 0 -.533-2.016 26.072 26.072 0 0 1 -7.067 6.268z" fill="#57b7eb"/><path d="m19.651 3a6 6 0 0 1 -5.651 4h-2v4h10v-8z" fill="#fcbc04"/><path d="m36 52h-8a1 1 0 0 1 0-2h8a1 1 0 0 1 0 2z" fill="#57b7eb"/><path d="m12 6h4a1 1 0 0 1 0 2h-4z" fill="#fcbc04"/><g fill="#e59730"><path d="m22 8h-2a1 1 0 0 1 0-2h2z"/><path d="m17 7a.989.989 0 0 0 -.263-.663 5.952 5.952 0 0 1 -2.737.663h-2v1h4a1 1 0 0 0 1-1z"/></g></g></g></g></svg>