<svg height="512" viewBox="0 0 64 64" width="512" xmlns="http://www.w3.org/2000/svg"><g id="Flat"><g id="Color"><g><path d="m12 9h40v52h-40z" fill="#57b7eb"/><path d="m44 9v25a20 20 0 0 1 -20 20h-12v7h40v-52z" fill="#4891d3"/><path d="m12 26h40v22h-40z" fill="#c4f236"/><path d="m44 34a19.926 19.926 0 0 1 -5.729 14h13.729v-22h-8z" fill="#a1d51c"/><g fill="#f9e109"><path d="m26.5 9h11v10h-11z"/><path d="m12 32h40v10h-40z"/><path d="m39 3h6v6h-6z"/></g><path d="m45 5h6v4h-6z" fill="#fcbc04"/><path d="m24 52h16v4h-16z" fill="#f9e109"/><path d="m44 34a19.875 19.875 0 0 1 -1.683 8h9.683v-10h-8z" fill="#fcbc04"/><path d="m40 56v-4h-7.326a19.892 19.892 0 0 1 -8.674 2v2z" fill="#fcbc04"/><path d="m49 7a2 2 0 0 1 -2-2h-2v4h6v-2z" fill="#e59730"/><path d="m43 3v1a3 3 0 0 1 -3 3h-1v2h6v-6z" fill="#fcbc04"/><path d="m26.5 15h11v4h-11z" fill="#fcbc04"/><g><g fill="#aae1f9"><path d="m32 39a1 1 0 0 1 -1-1v-2a1 1 0 0 1 2 0v2a1 1 0 0 1 -1 1z"/><path d="m36 39a1 1 0 0 1 -1-1v-2a1 1 0 0 1 2 0v2a1 1 0 0 1 -1 1z"/><path d="m40 39a1 1 0 0 1 -1-1v-2a1 1 0 0 1 2 0v2a1 1 0 0 1 -1 1z"/><path d="m44 39a1 1 0 0 1 -1-1v-2a1 1 0 0 1 2 0v2a1 1 0 0 1 -1 1z"/></g><path d="m48 39a1 1 0 0 1 -1-1v-2a1 1 0 0 1 2 0v2a1 1 0 0 1 -1 1z" fill="#57b7eb"/><path d="m16 39a1 1 0 0 1 -1-1v-2a1 1 0 0 1 2 0v2a1 1 0 0 1 -1 1z" fill="#aae1f9"/><path d="m20 39a1 1 0 0 1 -1-1v-2a1 1 0 0 1 2 0v2a1 1 0 0 1 -1 1z" fill="#aae1f9"/><path d="m24 39a1 1 0 0 1 -1-1v-2a1 1 0 0 1 2 0v2a1 1 0 0 1 -1 1z" fill="#aae1f9"/><path d="m28 39a1 1 0 0 1 -1-1v-2a1 1 0 0 1 2 0v2a1 1 0 0 1 -1 1z" fill="#aae1f9"/></g><path d="m44 35c-.01 0-.017.005-.027.005a19.687 19.687 0 0 1 -.565 3.78.98.98 0 0 0 .592.215 1 1 0 0 0 1-1v-2a1 1 0 0 0 -1-1z" fill="#57b7eb"/></g></g></g></svg>