<svg height="512" viewBox="0 0 64 64" width="512" xmlns="http://www.w3.org/2000/svg"><g id="Flat"><g id="Color"><g><path d="m21 59h-11l38-46 13 3z" fill="#57b7eb"/><path d="m23.824 55.964a2.887 2.887 0 0 1 -.049-4.031l34.763-36.5-10.538-2.433-38 46h11l40-43z" fill="#4891d3"/><path d="m50 3a6.982 6.982 0 0 0 -4.95 2.05l-40 42 9.9 9.9 40-42a7 7 0 0 0 -4.95-11.95z" fill="#aae1f9"/><path d="m53.788 4.119-35.598 37.381a6 6 0 0 1 -8.245.413l-4.895 5.137 9.9 9.9 40-42a6.995 6.995 0 0 0 -1.162-10.831z" fill="#57b7eb"/><circle cx="10" cy="52" fill="#4891d3" r="7"/><circle cx="10" cy="52" fill="#2d72bc" r="3"/><path d="m13 42a2.988 2.988 0 0 0 1.906-5.3l-4.112 4.318a2.983 2.983 0 0 0 2.206.982z" fill="#f89c8d"/><path d="m25 41a3 3 0 0 0 -.524 5.947l3.443-3.615a3 3 0 0 0 -2.919-2.332z" fill="#f8664f"/><circle cx="27" cy="34" fill="#f89c8d" r="3"/><path d="m31 26a3 3 0 0 0 0-6c-.071 0-.138.016-.208.021l-2.787 2.926v.053a3 3 0 0 0 2.995 3z" fill="#f89c8d"/><path d="m40 26a3 3 0 0 0 -1.088 5.789l3.822-4.013a3 3 0 0 0 -2.734-1.776z" fill="#f8664f"/><path d="m44 11a2.992 2.992 0 0 0 .941-5.835l-3.732 3.918a3 3 0 0 0 2.791 1.917z" fill="#f89c8d"/><circle cx="43" cy="18" fill="#f89c8d" r="3"/><path d="m53 7a3 3 0 0 0 2.492-1.331 6.977 6.977 0 0 0 -5.311-2.66 2.966 2.966 0 0 0 -.181.991 3 3 0 0 0 3 3z" fill="#f89c8d"/><g fill="#f8664f"><path d="m56.991 10.181a2.966 2.966 0 0 0 -.991-.181 3 3 0 0 0 -1.6 5.529l.552-.579a6.982 6.982 0 0 0 2.039-4.769z"/><path d="m27 37a2.993 2.993 0 0 0 1.01-5.813l-3.778 3.967a3 3 0 0 0 2.768 1.846z"/><path d="m43 21a2.993 2.993 0 0 0 .388-5.961l-3.334 3.5a3 3 0 0 0 2.946 2.461z"/><path d="m53.817 4.139-2.325 2.441a2.971 2.971 0 0 0 4-.911 7.012 7.012 0 0 0 -1.675-1.53z"/></g></g></g></g></svg>