<svg height="512" viewBox="0 0 64 64" width="512" xmlns="http://www.w3.org/2000/svg"><g id="Flat"><g id="Color"><g><path d="m42.469 61h-20.938a4 4 0 0 1 -3.969-3.5l-4.562-36.5h38l-4.562 36.5a4 4 0 0 1 -3.969 3.5z" fill="#f9e109"/><path d="m13 21 .5 4h22.469a5.765 5.765 0 0 1 5.721 6.481 20 20 0 0 1 -19.846 17.519h-5.344l1.062 8.5a4 4 0 0 0 3.969 3.5h20.938a4 4 0 0 0 3.969-3.5l4.562-36.5z" fill="#fcbc04"/><path d="m11 17h42a2 2 0 0 1 2 2v2a0 0 0 0 1 0 0h-46a0 0 0 0 1 0 0v-2a2 2 0 0 1 2-2z" fill="#aae1f9"/><path d="m11 13h42a0 0 0 0 1 0 0v1a3 3 0 0 1 -3 3h-36a3 3 0 0 1 -3-3v-1a0 0 0 0 1 0 0z" fill="#aae1f9"/><path d="m45.117 7h-26.234a4 4 0 0 0 -3.795 2.735l-1.088 3.265h36l-1.088-3.265a4 4 0 0 0 -3.795-2.735z" fill="#f9e109"/><path d="m27 7h-6v-4h3z" fill="#aae1f9"/><circle cx="32" cy="38" fill="#c4f236" r="10"/><circle cx="32" cy="38" fill="#f9e109" r="5"/><path d="m29.2 47.594a9.995 9.995 0 0 0 11.98-13.557 20 20 0 0 1 -11.98 13.557z" fill="#a1d51c"/><path d="m53 17h-2a2 2 0 0 1 -2 2h-40v2h46v-2a2 2 0 0 0 -2-2z" fill="#57b7eb"/><path d="m49.816 13a2.99 2.99 0 0 1 -2.816 2h-35.816a2.99 2.99 0 0 0 2.816 2h36a3 3 0 0 0 3-3v-1z" fill="#57b7eb"/><path d="m48.912 9.735a3.994 3.994 0 0 0 -2.925-2.628 2.469 2.469 0 0 1 -2.429 2.893h-28.558l-1 3h36z" fill="#fcbc04"/><path d="m24 3a2 2 0 0 1 -2 2h-1v2h6z" fill="#57b7eb"/><path d="m39 54h-14a1 1 0 0 1 0-2h14a1 1 0 0 1 0 2z" fill="#a1d51c"/></g></g></g></svg>