<svg height="512" viewBox="0 0 64 64" width="512" xmlns="http://www.w3.org/2000/svg"><g id="Flat"><g id="Color"><g><g><path d="m37 9h24v52h-24z" fill="#57b7eb"/><path d="m57 9v32a11 11 0 0 1 -11 11v-43h-9v52h24v-52z" fill="#4891d3"/><g fill="#c4f236"><circle cx="52" cy="29" r="4"/><circle cx="52" cy="41" r="4"/><circle cx="52" cy="53" r="4"/><circle cx="52" cy="17" r="4"/></g><path d="m54.828 14.172a3.958 3.958 0 0 0 -1.191-.81 3.983 3.983 0 0 1 -5.274 5.275 3.936 3.936 0 0 0 .809 1.191 4 4 0 0 0 5.656-5.656z" fill="#a1d51c"/><path d="m54.828 26.172a3.958 3.958 0 0 0 -1.191-.81 3.983 3.983 0 0 1 -5.274 5.275 3.936 3.936 0 0 0 .809 1.191 4 4 0 0 0 5.656-5.656z" fill="#a1d51c"/><path d="m54.828 38.172a3.958 3.958 0 0 0 -1.191-.81 3.983 3.983 0 0 1 -5.274 5.275 3.936 3.936 0 0 0 .809 1.191 4 4 0 0 0 5.656-5.656z" fill="#a1d51c"/><path d="m48.209 51.778a4.009 4.009 0 1 0 5.075-2.551 10.954 10.954 0 0 1 -5.075 2.551z" fill="#a1d51c"/><path d="m54.022 25.565-5.458 5.456a3.965 3.965 0 0 0 .608.807 3.918 3.918 0 0 0 .806.607l5.458-5.456a3.965 3.965 0 0 0 -.608-.807 3.918 3.918 0 0 0 -.806-.607z" fill="#7ab92d"/><path d="m54.022 37.565-5.458 5.456a3.965 3.965 0 0 0 .608.807 3.918 3.918 0 0 0 .806.607l5.458-5.456a3.965 3.965 0 0 0 -.608-.807 3.918 3.918 0 0 0 -.806-.607z" fill="#7ab92d"/><path d="m54.022 49.565-5.458 5.456a3.965 3.965 0 0 0 .608.807 3.918 3.918 0 0 0 .806.607l5.458-5.456a3.965 3.965 0 0 0 -.608-.807 3.918 3.918 0 0 0 -.806-.607z" fill="#7ab92d"/><path d="m54.022 13.565-5.458 5.456a3.965 3.965 0 0 0 .608.807 3.918 3.918 0 0 0 .806.607l5.458-5.456a3.965 3.965 0 0 0 -.608-.807 3.918 3.918 0 0 0 -.806-.607z" fill="#7ab92d"/></g><g><rect fill="#aae1f9" height="58" rx="6" width="40" x="3" y="3"/><path d="m40 3.809v18.191a31 31 0 0 1 -31 31h-6v2a6 6 0 0 0 6 6h28a6 6 0 0 0 6-6v-46a5.992 5.992 0 0 0 -3-5.191z" fill="#57b7eb"/><g fill="#f9e109"><ellipse cx="14" cy="13" rx="6" ry="4"/><ellipse cx="32" cy="13" rx="6" ry="4"/><ellipse cx="14" cy="25" rx="6" ry="4"/><ellipse cx="32" cy="25" rx="6" ry="4"/><ellipse cx="14" cy="38" rx="6" ry="4"/><ellipse cx="32" cy="38" rx="6" ry="4"/><ellipse cx="14" cy="50" rx="6" ry="4"/><ellipse cx="32" cy="50" rx="6" ry="4"/></g><path d="m17.759 9.885a2.78 2.78 0 0 1 .241 1.115c0 2.209-2.686 4-6 4a8 8 0 0 1 -3.759-.885c.725 1.666 3.027 2.885 5.759 2.885 3.314 0 6-1.791 6-4a3.717 3.717 0 0 0 -2.241-3.115z" fill="#fcbc04"/><path d="m35.759 9.885a2.78 2.78 0 0 1 .241 1.115c0 2.209-2.686 4-6 4a8 8 0 0 1 -3.759-.885c.725 1.666 3.027 2.885 5.759 2.885 3.314 0 6-1.791 6-4a3.717 3.717 0 0 0 -2.241-3.115z" fill="#fcbc04"/><path d="m17.759 21.885a2.78 2.78 0 0 1 .241 1.115c0 2.209-2.686 4-6 4a8 8 0 0 1 -3.759-.885c.725 1.666 3.027 2.885 5.759 2.885 3.314 0 6-1.791 6-4a3.717 3.717 0 0 0 -2.241-3.115z" fill="#fcbc04"/><path d="m35.759 21.885a2.78 2.78 0 0 1 .241 1.115c0 2.209-2.686 4-6 4a8 8 0 0 1 -3.759-.885c.725 1.666 3.027 2.885 5.759 2.885 3.314 0 6-1.791 6-4a3.717 3.717 0 0 0 -2.241-3.115z" fill="#fcbc04"/><path d="m17.759 34.885a2.78 2.78 0 0 1 .241 1.115c0 2.209-2.686 4-6 4a8 8 0 0 1 -3.759-.885c.725 1.666 3.027 2.885 5.759 2.885 3.314 0 6-1.791 6-4a3.717 3.717 0 0 0 -2.241-3.115z" fill="#fcbc04"/><path d="m35.759 34.885a2.78 2.78 0 0 1 .241 1.115c0 2.209-2.686 4-6 4a8 8 0 0 1 -3.759-.885c.725 1.666 3.027 2.885 5.759 2.885 3.314 0 6-1.791 6-4a3.717 3.717 0 0 0 -2.241-3.115z" fill="#fcbc04"/><path d="m17.759 46.885a2.78 2.78 0 0 1 .241 1.115c0 2.209-2.686 4-6 4a8 8 0 0 1 -3.759-.885c.725 1.666 3.027 2.885 5.759 2.885 3.314 0 6-1.791 6-4a3.717 3.717 0 0 0 -2.241-3.115z" fill="#fcbc04"/><path d="m35.759 46.885a2.78 2.78 0 0 1 .241 1.115c0 2.209-2.686 4-6 4a8 8 0 0 1 -3.759-.885c.725 1.666 3.027 2.885 5.759 2.885 3.314 0 6-1.791 6-4a3.717 3.717 0 0 0 -2.241-3.115z" fill="#fcbc04"/><path d="m20 13a2.757 2.757 0 0 0 -.2-1h-11.6a2.637 2.637 0 0 0 0 2h11.6a2.757 2.757 0 0 0 .2-1z" fill="#e59730"/><path d="m38 13a2.757 2.757 0 0 0 -.2-1h-11.6a2.637 2.637 0 0 0 0 2h11.6a2.757 2.757 0 0 0 .2-1z" fill="#e59730"/><path d="m20 25a2.757 2.757 0 0 0 -.2-1h-11.6a2.637 2.637 0 0 0 0 2h11.6a2.757 2.757 0 0 0 .2-1z" fill="#e59730"/><path d="m38 25a2.757 2.757 0 0 0 -.2-1h-11.6a2.637 2.637 0 0 0 0 2h11.6a2.757 2.757 0 0 0 .2-1z" fill="#e59730"/><path d="m20 38a2.757 2.757 0 0 0 -.2-1h-11.6a2.637 2.637 0 0 0 0 2h11.6a2.757 2.757 0 0 0 .2-1z" fill="#e59730"/><path d="m38 38a2.757 2.757 0 0 0 -.2-1h-11.6a2.637 2.637 0 0 0 0 2h11.6a2.757 2.757 0 0 0 .2-1z" fill="#e59730"/><path d="m20 50a2.757 2.757 0 0 0 -.2-1h-11.6a2.637 2.637 0 0 0 0 2h11.6a2.757 2.757 0 0 0 .2-1z" fill="#e59730"/><path d="m38 50a2.757 2.757 0 0 0 -.2-1h-11.6a2.637 2.637 0 0 0 0 2h11.6a2.757 2.757 0 0 0 .2-1z" fill="#e59730"/></g></g></g></g></svg>