<svg height="512" viewBox="0 0 64 64" width="512" xmlns="http://www.w3.org/2000/svg"><g id="Flat"><g id="Color"><g><path d="m21 29h22v16h-22z" fill="#57b7eb" transform="matrix(-1 0 0 -1 64 74)"/><path d="m21 32v-3h22v16h-22v-5h11a7 7 0 0 0 7-7v-1z" fill="#4891d3"/><path d="m27 11v-2h10v2l6 6h-22z" fill="#aae1f9"/><rect fill="#aae1f9" height="6" rx="3" transform="matrix(-1 0 0 -1 64 52)" width="28" x="18" y="23"/><rect fill="#aae1f9" height="6" rx="3" transform="matrix(-1 0 0 -1 64 40)" width="28" x="18" y="17"/><path d="m23 55h18a3 3 0 0 1 3 3v3a0 0 0 0 1 0 0h-24a0 0 0 0 1 0 0v-3a3 3 0 0 1 3-3z" fill="#57b7eb" transform="matrix(-1 0 0 -1 64 116)"/><rect fill="#aae1f9" height="6" rx="3" transform="matrix(-1 0 0 -1 64 104)" width="28" x="18" y="49"/><rect fill="#aae1f9" height="6" rx="3" transform="matrix(-1 0 0 -1 64 92)" width="28" x="18" y="43"/><circle cx="32" cy="36" fill="#c4f236" r="3"/><path d="m25 3h14v6h-14z" fill="#c4f236" transform="matrix(-1 0 0 -1 64 12)"/><g fill="#57b7eb"><path d="m43 17a3 3 0 0 1 0 6h-22a3 3 0 0 1 -3-3h22a3 3 0 0 0 3-3z"/><path d="m43 23a3 3 0 0 1 0 6h-22a3 3 0 0 1 -3-3h22a3 3 0 0 0 3-3z"/><path d="m43 43a3 3 0 0 1 0 6h-22a3 3 0 0 1 -3-3h22a3 3 0 0 0 3-3z"/><path d="m43 49a3 3 0 0 1 0 6h-22a3 3 0 0 1 -3-3h22a3 3 0 0 0 3-3z"/></g><path d="m33 6a3 3 0 0 0 3-3h3v6h-14v-3z" fill="#a1d51c"/><path d="m32.757 14a1.757 1.757 0 0 0 1.243-3h-7v-2h10v2l6 6h-22l3-3z" fill="#57b7eb"/><path d="m40 60a3 3 0 0 0 -3-3h-17v-2h24v3a3 3 0 0 1 -3 3h-1z" fill="#4891d3"/></g></g></g></svg>