<svg height="512" viewBox="0 0 64 64" width="512" xmlns="http://www.w3.org/2000/svg"><g id="Flat"><g id="Color"><g><path d="m54.5 24h-45l.538-2.827a22.358 22.358 0 0 1 21.962-18.173 22.358 22.358 0 0 1 21.962 18.173z" fill="#4891d3"/><path d="m51.986 12.137c0-.046.014-.09.014-.137a2.994 2.994 0 0 0 -5.708-1.271 3.936 3.936 0 0 0 -4.335-.151 3.973 3.973 0 0 0 -7.457-1.478 3.976 3.976 0 0 0 -7.132.243 2.938 2.938 0 0 0 -3.665.748 2.943 2.943 0 0 0 -3.413 1.64 3.986 3.986 0 0 0 -7.153 1.282c-.046 0-.09-.014-.137-.014a3 3 0 1 0 2.473 4.7 3.982 3.982 0 0 0 1.527.301 3.979 3.979 0 0 0 6.5 3.1 3.948 3.948 0 0 0 5.974-1.152 3.035 3.035 0 0 0 .526.052 2.984 2.984 0 0 0 1.116-.22 2.989 2.989 0 0 0 5.828-.227 3.955 3.955 0 0 0 4.965.957 3.965 3.965 0 0 0 6.857-1.21 3.934 3.934 0 0 0 2.234.7 3.992 3.992 0 0 0 .986-7.863z" fill="#f9e109"/><path d="m51.986 12.137c0-.046.014-.09.014-.137a2.99 2.99 0 0 0 -2.1-2.848 3.943 3.943 0 0 1 .1.848 4 4 0 0 1 -4 4 3.934 3.934 0 0 1 -2.234-.7 3.965 3.965 0 0 1 -6.857 1.213 3.955 3.955 0 0 1 -4.965-.957 2.989 2.989 0 0 1 -5.828.227 2.984 2.984 0 0 1 -1.116.217 3.035 3.035 0 0 1 -.526-.053 3.948 3.948 0 0 1 -5.974 1.153 3.957 3.957 0 0 1 -6.319-1.971 2.993 2.993 0 1 0 3.292 4.571 3.982 3.982 0 0 0 1.527.3 3.979 3.979 0 0 0 6.5 3.1 3.948 3.948 0 0 0 5.974-1.152 3.035 3.035 0 0 0 .526.052 2.984 2.984 0 0 0 1.116-.22 2.989 2.989 0 0 0 5.828-.227 3.955 3.955 0 0 0 4.965.957 3.965 3.965 0 0 0 6.857-1.21 3.934 3.934 0 0 0 2.234.7 3.992 3.992 0 0 0 .986-7.863z" fill="#fcbc04"/><g><path d="m32 61h-9l-2.585-37.914a5.7 5.7 0 0 1 5.685-6.086h.2a5.7 5.7 0 0 1 5.7 5.7z" fill="#f89c8d"/><path d="m41 61h-9v-38.3a5.7 5.7 0 0 1 5.7-5.7h.2a5.7 5.7 0 0 1 5.685 6.086z" fill="#aae1f9"/><path d="m23 61h-4.586a4 4 0 0 1 -3.95-3.372l-5.415-34.034a5.7 5.7 0 0 1 5.628-6.594 5.7 5.7 0 0 1 5.685 5.311z" fill="#aae1f9"/><path d="m45.586 61h-4.586l2.638-38.689a5.7 5.7 0 0 1 5.685-5.311 5.7 5.7 0 0 1 5.628 6.594l-5.415 34.034a4 4 0 0 1 -3.95 3.372z" fill="#f89c8d"/><path d="m28.542 17.458a5.687 5.687 0 0 1 .458 2.242v33.3a5 5 0 0 1 -5 5h-1.2l.2 3h9v-38.3a5.7 5.7 0 0 0 -3.458-5.242z" fill="#f8664f"/><path d="m40.133 17.458a5.66 5.66 0 0 1 .452 2.628l-2.14 31.39a7 7 0 0 1 -6.445 6.498v3.026h9l2.585-37.914a5.7 5.7 0 0 0 -3.452-5.628z" fill="#57b7eb"/><path d="m20.362 22.311a5.69 5.69 0 0 0 -3.462-4.851 5.656 5.656 0 0 1 .464 1.851l2.326 34.118a4.28 4.28 0 0 1 -4.272 4.571 3.977 3.977 0 0 1 -.884-.11 3.989 3.989 0 0 0 3.88 3.11h4.586z" fill="#57b7eb"/><path d="m51.564 17.464a5.662 5.662 0 0 1 .387 3.13l-5.415 34.034a4 4 0 0 1 -3.95 3.372h-1.381l-.205 3h4.586a4 4 0 0 0 3.95-3.372l5.415-34.034a5.7 5.7 0 0 0 -3.387-6.13z" fill="#f8664f"/><path d="m32 52.886v-19.772c-4.631.474-8.523 2.561-10.53 5.445l.663 9.729a15.162 15.162 0 0 0 9.867 4.598z" fill="#f8664f"/><path d="m34 33a19.576 19.576 0 0 0 -2 .114v19.772a19.576 19.576 0 0 0 2 .114 18.141 18.141 0 0 0 7.657-1.634l1.1-16.161a17.7 17.7 0 0 0 -8.757-2.205z" fill="#57b7eb"/><path d="m48 43c0-3.154-2.048-5.962-5.241-7.8l-1.1 16.161c3.815-1.781 6.341-4.861 6.341-8.361z" fill="#f8664f"/></g><ellipse cx="32" cy="42" fill="#c4f236" rx="14" ry="10"/><path d="m41.032 34.366a7.525 7.525 0 0 1 .968 3.634c0 5.523-6.268 10-14 10a17.565 17.565 0 0 1 -9.032-2.366c2.037 3.724 7.097 6.366 13.032 6.366 7.732 0 14-4.477 14-10 0-3.063-1.932-5.8-4.968-7.634z" fill="#a1d51c"/><path d="m37 40c-.061 0-.119.013-.178.018a2.983 2.983 0 0 0 -5.706.2 2.886 2.886 0 0 0 -2.135-.03c.006-.064.019-.125.019-.19a2 2 0 1 0 -2 2c.065 0 .126-.013.19-.019a2.969 2.969 0 0 0 -.19 1.021 3 3 0 0 0 3 3 2.963 2.963 0 0 0 .7-.092 2.988 2.988 0 0 0 5.3-1.908 2.822 2.822 0 0 0 -.03-.293 2 2 0 1 0 1.03-3.707z" fill="#f9e109"/><path d="m37 40c-.061 0-.119.013-.178.018-.014-.039-.034-.074-.049-.111a1.976 1.976 0 0 1 -2.8.8 2.822 2.822 0 0 1 .027.293 2.988 2.988 0 0 1 -5.3 1.908 2.773 2.773 0 0 1 -1.686-.086c0 .06-.017.117-.017.178a3 3 0 0 0 3 3 2.963 2.963 0 0 0 .7-.092 2.988 2.988 0 0 0 5.303-1.908 2.822 2.822 0 0 0 -.03-.293 2 2 0 1 0 1.03-3.707z" fill="#fcbc04"/><g fill="#e59730"><path d="m31.5 16a3.477 3.477 0 0 1 -2.475-1.025 1 1 0 0 1 1.415-1.414 1.536 1.536 0 0 0 2.12 0 1 1 0 0 1 1.415 1.414 3.479 3.479 0 0 1 -2.475 1.025z"/><path d="m46.5 16a3.492 3.492 0 0 1 -2.475-1.023 1 1 0 0 1 1.414-1.414 1.5 1.5 0 0 0 2.122 0 1 1 0 0 1 1.414 1.414 3.492 3.492 0 0 1 -2.475 1.023z"/><path d="m18.5 16a3.477 3.477 0 0 1 -2.475-1.025 1 1 0 0 1 1.415-1.414 1.536 1.536 0 0 0 2.12 0 1 1 0 0 1 1.415 1.414 3.479 3.479 0 0 1 -2.475 1.025z"/><path d="m31.5 45a3.477 3.477 0 0 1 -2.475-1.025 1 1 0 0 1 1.415-1.414 1.536 1.536 0 0 0 2.12 0 1 1 0 0 1 1.415 1.414 3.479 3.479 0 0 1 -2.475 1.025z"/></g></g></g></g></svg>