<svg height="512" viewBox="0 0 64 64" width="512" xmlns="http://www.w3.org/2000/svg"><g id="Flat"><g id="Color"><g><g><circle cx="45" cy="45" fill="#c4f236" r="16"/><path d="m55.905 33.315a16.155 16.155 0 0 1 .095 1.685 15.993 15.993 0 0 1 -14 15.862v-21.571a16.021 16.021 0 1 0 13.905 4.024z" fill="#a1d51c"/><circle cx="45" cy="45" fill="#aae1f9" r="12"/><path d="m45 33a12 12 0 1 0 12 12 12 12 0 0 0 -12-12zm-3 17.862v-13.762a11.949 11.949 0 0 1 13.38 2.317 16.013 16.013 0 0 1 -13.38 11.445z" fill="#57b7eb"/><g fill="#f9e109"><path d="m44 44a1 1 0 0 1 -1-1v-2a1 1 0 0 1 2 0v2a1 1 0 0 1 -1 1z"/><path d="m52 44a1 1 0 0 1 -.447-.1l-2.553-1.282v.382a1 1 0 0 1 -2 0v-2a1 1 0 0 1 1.447-.9l2.553 1.282v-.382a1 1 0 0 1 2 0v2a1 1 0 0 1 -1 1z"/><path d="m39 46h12a1 1 0 0 1 0 2h-12z"/><path d="m39 50h7a1 1 0 0 1 0 2h-7z"/></g><g fill="#fcbc04"><path d="m49.3 48h1.7a.991.991 0 0 0 .471-1.867 16.057 16.057 0 0 1 -2.171 1.867z"/><path d="m39 46h3v2h-3z"/></g><path d="m47 51a1 1 0 0 0 -1-1h-.466a15.988 15.988 0 0 1 -3.534.862v-.862h-3v2h7a1 1 0 0 0 1-1z" fill="#fcbc04"/></g><g><rect fill="#57b7eb" height="24" rx="4" width="36" x="3" y="37"/><path d="m5 25h32a2 2 0 0 1 2 2v10a0 0 0 0 1 0 0h-36a0 0 0 0 1 0 0v-10a2 2 0 0 1 2-2z" fill="#a1d51c"/><path d="m12 25h6v12h-6z" fill="#c4f236"/><path d="m12 61h-4v-19.053a11.993 11.993 0 0 1 .616-3.794l.384-1.153h4l-.384 1.153a11.993 11.993 0 0 0 -.616 3.794z" fill="#aae1f9"/><path d="m37 25h-3v2a6 6 0 0 1 -6 6h-25v4h36v-10a2 2 0 0 0 -2-2z" fill="#7ab92d"/><path d="m12 33h6v4h-6z" fill="#a1d51c"/><path d="m35 37h-28a4 4 0 0 0 -4 4h25a4 4 0 0 1 4 4 10 10 0 0 1 -10 10h-19v2a4 4 0 0 0 4 4h28a4 4 0 0 0 4-4v-16a4 4 0 0 0 -4-4z" fill="#4891d3"/><g fill="#57b7eb"><path d="m8.038 41h4a12 12 0 0 1 .578-2.847l.384-1.153h-4l-.384 1.153a12 12 0 0 0 -.578 2.847z"/><path d="m8 55h4v6h-4z"/></g><g fill="#f9e109"><path d="m22 46a1 1 0 0 1 -1-1v-2a1 1 0 0 1 2 0v2a1 1 0 0 1 -1 1z"/><path d="m26 46a1 1 0 0 1 -1-1v-2a1 1 0 0 1 2 0v2a1 1 0 0 1 -1 1z"/><path d="m34 46a1 1 0 0 1 -.447-.1l-2.553-1.282v.382a1 1 0 0 1 -2 0v-2a1 1 0 0 1 1.447-.9l2.553 1.282v-.382a1 1 0 0 1 2 0v2a1 1 0 0 1 -1 1z"/><path d="m33 50h-11a1 1 0 0 1 0-2h11a1 1 0 0 1 0 2z"/><path d="m28 54h-6a1 1 0 0 1 0-2h6a1 1 0 0 1 0 2z"/><path d="m16 56a1 1 0 0 1 -1-1v-12a1 1 0 0 1 2 0v12a1 1 0 0 1 -1 1z"/></g><path d="m34 46a1 1 0 0 0 1-1v-2a1 1 0 0 0 -2 0v.382l-2-1a3.967 3.967 0 0 1 1 2.618c0 .039 0 .076-.006.115l1.559.78a1 1 0 0 0 .447.105z" fill="#fcbc04"/><path d="m34 49a1 1 0 0 0 -1-1h-1.459a9.949 9.949 0 0 1 -.89 2h2.349a1 1 0 0 0 1-1z" fill="#fcbc04"/><path d="m29 53a.987.987 0 0 0 -.247-.64 10.009 10.009 0 0 1 -2.416 1.64h1.663a1 1 0 0 0 1-1z" fill="#fcbc04"/><path d="m16 56a1 1 0 0 0 1-1h-2a1 1 0 0 0 1 1z" fill="#fcbc04"/><g><path d="m7 25h2v12h-2z" fill="#c4f236"/><path d="m7 33h2v4h-2z" fill="#a1d51c"/></g></g></g></g></g></svg>