<svg height="512" viewBox="0 0 64 64" width="512" xmlns="http://www.w3.org/2000/svg"><g id="Flat"><g id="Color"><g><path d="m57 37h-50l2.764 20.27a2 2 0 0 0 1.982 1.73h40.508a2 2 0 0 0 1.982-1.73z" fill="#57b7eb"/><g fill="#4891d3"><path d="m32 37h4v22h-4z"/><path d="m40 37h4v22h-4z"/><path d="m48 37h4v22h-4z"/><path d="m16 37h4v22h-4z"/><path d="m24 37h4v22h-4z"/><path d="m7 37 .409 3h42.591a1.786 1.786 0 0 1 1.769 2.027 15 15 0 0 1 -14.862 12.973h-27.452l.309 2.27a2 2 0 0 0 1.982 1.73h40.508a2 2 0 0 0 1.982-1.73l2.764-20.27z"/></g><rect fill="#aae1f9" height="4" rx="2" width="58" x="3" y="33"/><path d="m30 37h4a0 0 0 0 1 0 0v22a2 2 0 0 1 -2 2 2 2 0 0 1 -2-2v-22a0 0 0 0 1 0 0z" fill="#aae1f9"/><path d="m38 37h4a0 0 0 0 1 0 0v22a2 2 0 0 1 -2 2 2 2 0 0 1 -2-2v-22a0 0 0 0 1 0 0z" fill="#aae1f9"/><path d="m46 37h4a0 0 0 0 1 0 0v22a2 2 0 0 1 -2 2 2 2 0 0 1 -2-2v-22a0 0 0 0 1 0 0z" fill="#aae1f9"/><path d="m46 37v2.555a3.982 3.982 0 0 1 2 3.445v14a2 2 0 0 1 -2 2 2 2 0 0 0 4 0v-22z" fill="#57b7eb"/><path d="m14 37h4a0 0 0 0 1 0 0v22a2 2 0 0 1 -2 2 2 2 0 0 1 -2-2v-22a0 0 0 0 1 0 0z" fill="#aae1f9"/><path d="m22 37h4a0 0 0 0 1 0 0v22a2 2 0 0 1 -2 2 2 2 0 0 1 -2-2v-22a0 0 0 0 1 0 0z" fill="#aae1f9"/><rect fill="#aae1f9" height="4" rx="2" width="58" x="3" y="29"/><path d="m13 19h38a6 6 0 0 1 6 6v4a0 0 0 0 1 0 0h-50a0 0 0 0 1 0 0v-4a6 6 0 0 1 6-6z" fill="#57b7eb"/><path d="m26.672 19-10 10h5.656l10-10z" fill="#aae1f9"/><path d="m59 29a2 2 0 0 1 -2 2h-54a2 2 0 0 0 2 2h54a2 2 0 0 0 0-4z" fill="#57b7eb"/><path d="m59 33a2 2 0 0 1 -2 2h-54a2 2 0 0 0 2 2h54a2 2 0 0 0 0-4z" fill="#57b7eb"/><path d="m53.814 19.7a8 8 0 0 1 -7.814 6.3h-39v3h50v-4a6 6 0 0 0 -3.186-5.3z" fill="#4891d3"/><path d="m19.672 26-3 3h5.656l3-3z" fill="#57b7eb"/><path d="m38 37v2.555a3.982 3.982 0 0 1 2 3.445v14a2 2 0 0 1 -2 2 2 2 0 0 0 4 0v-22z" fill="#57b7eb"/><path d="m30 37v2.555a3.982 3.982 0 0 1 2 3.445v14a2 2 0 0 1 -2 2 2 2 0 0 0 4 0v-22z" fill="#57b7eb"/><path d="m22 37v2.555a3.982 3.982 0 0 1 2 3.445v14a2 2 0 0 1 -2 2 2 2 0 0 0 4 0v-22z" fill="#57b7eb"/><path d="m14 37v2.555a3.982 3.982 0 0 1 2 3.445v14a2 2 0 0 1 -2 2 2 2 0 0 0 4 0v-22z" fill="#57b7eb"/><g fill="#aae1f9"><path d="m20.75 19-4.71 4.71a1.042 1.042 0 0 1 -.71.29 1.024 1.024 0 0 1 -.71-.29 1.008 1.008 0 0 1 0-1.42l3.29-3.29z"/><path d="m35.38 25.71-3.29 3.29h-2.84l4.71-4.71a1 1 0 0 1 1.42 1.42z"/></g><path d="m32.25 26-3 3h2.84l3-3z" fill="#57b7eb"/></g></g></g></svg>