<svg height="512" viewBox="0 0 64 64" width="512" xmlns="http://www.w3.org/2000/svg"><g id="Flat"><g id="Color"><g><path d="m15 21v32c0 4.418 7.611 8 17 8s17-3.582 17-8v-32z" fill="#57b7eb"/><path d="m27 60.647c.965.14 1.97.236 3 .293v-39.94h-3z" fill="#aae1f9"/><path d="m19 58.15a19.646 19.646 0 0 0 4 1.628v-38.778h-4z" fill="#aae1f9"/><path d="m15 45.319a50.7 50.7 0 0 0 17 2.681 50.7 50.7 0 0 0 17-2.681v-10a50.7 50.7 0 0 1 -17 2.681 50.7 50.7 0 0 1 -17-2.681z" fill="#f8664f"/><g><path d="m14 9v12c0 3.314 8.059 6 18 6s18-2.686 18-6v-12z" fill="#4891d3"/><path d="m21 25.742v-16.742h-4v15.314a20.446 20.446 0 0 0 4 1.428z" fill="#57b7eb"/><path d="m28 26.846v-17.846h-3v17.529c.959.135 1.965.239 3 .317z" fill="#57b7eb"/><ellipse cx="32" cy="9" fill="#aae1f9" rx="18" ry="6"/><path d="m32 3c-.163 0-.32.007-.482.008l-15.339 8.856a18.092 18.092 0 0 0 4.769 1.865l17.818-10.287a50.7 50.7 0 0 0 -6.766-.442z" fill="#c4f236"/></g><ellipse cx="32" cy="43" fill="#a1d51c" rx="9" ry="11"/><path d="m19 46.519c1.27.311 2.605.58 4 .8v-10c-1.395-.218-2.73-.487-4-.8z" fill="#f89c8d"/><path d="m27 52.145a8.2 8.2 0 0 0 3 1.573v-21.436a8.2 8.2 0 0 0 -3 1.573z" fill="#c4f236"/><g fill="#f8664f"><path d="m36 39h-8a1 1 0 0 1 0-2h8a1 1 0 0 1 0 2z"/><path d="m34 44h-6a1 1 0 0 1 0-2h6a1 1 0 0 1 0 2z"/><path d="m30 48h-2a1 1 0 0 1 0-2h2a1 1 0 0 1 0 2z"/><path d="m36 48h-2a1 1 0 0 1 0-2h2a1 1 0 0 1 0 2z"/></g><g fill="#f89c8d"><path d="m28 37a1 1 0 0 0 0 2h2v-2z"/><path d="m27 43a1 1 0 0 0 1 1h2v-2h-2a1 1 0 0 0 -1 1z"/><path d="m27 47a1 1 0 0 0 1 1h2v-2h-2a1 1 0 0 0 -1 1z"/></g></g></g></g></svg>