<svg height="512" viewBox="0 0 64 64" width="512" xmlns="http://www.w3.org/2000/svg"><g id="Flat"><g id="Color"><g><path d="m55.107 7h1.893v-4h-48v6.4a5.28 5.28 0 0 0 .887 2.929 5.171 5.171 0 0 1 .808 3.653 79.914 79.914 0 0 0 -.312 22.077 80.017 80.017 0 0 1 .617 9.919v2.55a18.949 18.949 0 0 1 -2 8.472v2h46v-2a18.949 18.949 0 0 1 -2-8.472v-4.239a243.55 243.55 0 0 1 1.67-28.48 8.149 8.149 0 0 1 2.33-4.809v-2h-2a2 2 0 0 1 -1.973-2.336 2.075 2.075 0 0 1 2.08-1.664z" fill="#aae1f9"/><path d="m55.107 7h1.893v-4h-9a8.149 8.149 0 0 0 -2.33 4.809q-1.187 10.08-1.53 20.228a23.717 23.717 0 0 1 -5.986 14.863 23.964 23.964 0 0 1 -17.954 8.1h-9.21a18.929 18.929 0 0 1 -1.99 8v2h46v-2a18.949 18.949 0 0 1 -2-8.472v-4.239a243.55 243.55 0 0 1 1.67-28.48 8.149 8.149 0 0 1 2.33-4.809v-2h-2a2 2 0 0 1 -1.973-2.336 2.075 2.075 0 0 1 2.08-1.664z" fill="#57b7eb"/><path d="m45 55h-26a4 4 0 0 1 -4-4v-1.641q0-2.628.178-5.251l.378-5.568a82.5 82.5 0 0 0 -.149-13.067l-.152-1.67a5.041 5.041 0 0 1 2-4.491 5.045 5.045 0 0 1 3.9-.932l7.053 1.245a31.229 31.229 0 0 0 15.3-1.128 3.8 3.8 0 0 1 2.9.206 3.8 3.8 0 0 1 2.025 4.14 39.841 39.841 0 0 0 -.233 14.357l.258 1.549a39.78 39.78 0 0 1 .542 6.551v5.7a4 4 0 0 1 -4 4z" fill="#f89c8d"/><circle cx="24" cy="26" fill="#c4f236" r="3"/><path d="m19 55h26a4 4 0 0 0 4-4v-5.7a39.78 39.78 0 0 0 -.542-6.547l-.258-1.553a39.841 39.841 0 0 1 .231-14.357 3.759 3.759 0 0 0 -3.764-4.523q-.359 4.852-.527 9.717a23.717 23.717 0 0 1 -5.986 14.863 23.964 23.964 0 0 1 -17.954 8.1h-5.2a4 4 0 0 0 4 4z" fill="#f8664f"/><path d="m44.254 37.857c-.316-1.9-.506-2.982-.572-3.857l-1.323.222a22.423 22.423 0 0 1 -9.19-.37l-1.081-.273a22.417 22.417 0 0 0 -12.415.421 24.346 24.346 0 0 1 -.126 4.811l-.378 5.573q-.169 2.484-.169 4.975v1.641h26v-5.716a35.715 35.715 0 0 0 -.487-5.877z" fill="#c4f236"/><path d="m45 51v-5.716a35.715 35.715 0 0 0 -.487-5.877l-.259-1.55c-.316-1.9-.506-2.982-.572-3.857l-.566.095a24.035 24.035 0 0 1 -4.962 8.805 23.964 23.964 0 0 1 -17.954 8.1z" fill="#a1d51c"/><path d="m24.242 23.024a2.987 2.987 0 0 1 -2.242 4.976c-.083 0-.16-.018-.242-.024a2.991 2.991 0 1 0 2.484-4.952z" fill="#a1d51c"/><path d="m55 11a2 2 0 0 1 -1.973-2.336 2.075 2.075 0 0 1 2.08-1.664h1.893v-4h-48v6.4a5.28 5.28 0 0 0 .887 2.929 5.035 5.035 0 0 1 .361.67h46.752v-1.999z" fill="#57b7eb"/><path d="m55.107 7h1.893v-4h-9a8.141 8.141 0 0 0 -2.189 4h-36.811v2.4a5.28 5.28 0 0 0 .887 2.929 5.035 5.035 0 0 1 .361.67h46.752v-1.999h-2a2 2 0 0 1 -1.973-2.336 2.075 2.075 0 0 1 2.08-1.664z" fill="#4891d3"/><path d="m39 41h-15a1 1 0 0 1 0-2h15a1 1 0 0 1 0 2z" fill="#f9e109"/><path d="m36 45h-12a1 1 0 0 1 0-2h12a1 1 0 0 1 0 2z" fill="#f9e109"/><path d="m49.5 8h-37a1 1 0 0 1 0-2h37a1 1 0 0 1 0 2z" fill="#aae1f9"/><path d="m12.5 8h37a1 1 0 0 0 0-2h-3.392a8.206 8.206 0 0 0 -.3 1h-34.308a1 1 0 0 0 1 1z" fill="#57b7eb"/><path d="m36.972 44.139q-.446.436-.911.849a.981.981 0 0 0 .911-.849z" fill="#fcbc04"/></g></g></g></svg>