<svg height="512" viewBox="0 0 64 64" width="512" xmlns="http://www.w3.org/2000/svg"><g id="Flat"><g id="Color"><g><path d="m52 59-4 2-4-2-4 2-4-2-4 2-4-2-4 2-4-2-4 2-4-2-4 2v-6-4h48v4 6z" fill="#aae1f9"/><path d="m8 13-1 14 2 13-1 11h48v-9l2-15-2-14z" fill="#c4f236"/><path d="m44.424 22.972a16.015 16.015 0 0 1 -7.663 16.242 16.5 16.5 0 0 1 -8.88 2.143l-18.931-.806-.95 10.449h48v-9l2-15-2-14h-13z" fill="#a1d51c"/><path d="m8 51v2h42.445a3.982 3.982 0 0 1 -3.445 2h-39v6l4-2 4 2 4-2 4 2 4-2 4 2 4-2 4 2 4-2 4 2 4-2 4 2v-10z" fill="#57b7eb"/><path d="m52 5-4-2-4 2-4-2-4 2-4-2-4 2-4-2-4 2-4-2-4 2-4-2v6 4h48v-4-6z" fill="#aae1f9"/><g><circle cx="22" cy="28" fill="#f9e109" r="7"/><path d="m22 21c-.034 0-.066 0-.1 0a6.994 6.994 0 0 1 -4.8 11.99 7 7 0 1 0 4.9-11.99z" fill="#fcbc04"/><circle cx="32" cy="28" fill="#f9e109" r="7"/><path d="m32 21c-.034 0-.066 0-.1 0a6.994 6.994 0 0 1 -4.8 11.99 7 7 0 1 0 4.9-11.99z" fill="#fcbc04"/><circle cx="42" cy="28" fill="#f9e109" r="7"/><path d="m42 35a7 7 0 0 0 2.194-13.644l.23 1.616a16.466 16.466 0 0 1 -2.94 12c.171.015.342.028.516.028z" fill="#fcbc04"/></g><path d="m52 5-4-2-.3.15a8 8 0 0 1 -7.7 5.85h-32v4h48v-10z" fill="#57b7eb"/><g><path d="m52 10h-40a1 1 0 0 1 0-2h40a1 1 0 0 1 0 2z" fill="#57b7eb"/><g fill="#e59730"><circle cx="43" cy="25" r="1"/><circle cx="44" cy="31" r="1"/><circle cx="40" cy="28" r="1"/><circle cx="31" cy="25" r="1"/><circle cx="30" cy="30" r="1"/><circle cx="21" cy="31" r="1"/><circle cx="19" cy="28" r="1"/><circle cx="22" cy="25" r="1"/></g><path d="m43 42h-21a1 1 0 0 1 0-2h21a1 1 0 0 1 0 2z" fill="#aae1f9"/><path d="m31 47h-9a1 1 0 0 1 0-2h9a1 1 0 0 1 0 2z" fill="#57b7eb"/><path d="m39 47h-3a1 1 0 0 1 0-2h3a1 1 0 0 1 0 2z" fill="#57b7eb"/><path d="m52 56h-40a1 1 0 0 1 0-2h40a1 1 0 0 1 0 2z" fill="#57b7eb"/></g><path d="m12 10h40a1 1 0 0 0 0-2h-8.134a7.935 7.935 0 0 1 -3.866 1h-29a1 1 0 0 0 1 1z" fill="#4891d3"/><path d="m52 54h-2.385a3.934 3.934 0 0 1 -2.615 1h-36a1 1 0 0 0 1 1h40a1 1 0 0 0 0-2z" fill="#4891d3"/><path d="m22 42h21a1 1 0 0 0 0-2h-7.834a16.5 16.5 0 0 1 -7.285 1.357l-6.868-.293a.994.994 0 0 0 .987.936z" fill="#57b7eb"/></g></g></g></svg>