<svg height="512" viewBox="0 0 64 64" width="512" xmlns="http://www.w3.org/2000/svg"><g id="Flat"><g id="Color"><g><path d="m57.456 15.029-.707-3.535-3.536-.707-.707-3.536-3.535-.707-.708-3.535-7.071 7.071 12.728 12.728 7.071-7.071z" fill="#aae1f9"/><path d="m23 10h18v44h-18z" fill="#f9e109" transform="matrix(.707 .707 -.707 .707 32 -13.255)"/><path d="m28 15h8v34h-8z" fill="#f9e109" transform="matrix(.707 .707 -.707 .707 32 -13.255)"/><path d="m6.544 48.971.707 3.535 3.536.707.707 3.536 3.535.707.708 3.535 7.071-7.071-12.728-12.728-7.071 7.071z" fill="#aae1f9"/><path d="m46.849 22.808h7.071l-12.728-12.728v7.071z" fill="#fcbc04"/><path d="m41.192 17.151v-7.071l-31.112 31.112h7.071z" fill="#fcbc04"/><path d="m17.151 41.192h-7.071l12.728 12.728v-7.071z" fill="#e59730"/><path d="m46.849 22.808-24.041 24.041v7.071l31.112-31.112z" fill="#e59730"/><path d="m50.678 14.565-6.986-6.985-2.5 2.5 12.728 12.728 7.071-7.071-2.621-.525a5.988 5.988 0 0 1 -7.692-.647z" fill="#57b7eb"/><path d="m13.678 50.565-6.486-6.485-4.183 4.183 3.535.708.707 3.535 3.536.707.707 3.536 3.535.707.708 3.535 7.071-7.071-2.242-2.241a5.981 5.981 0 0 1 -6.888-1.114z" fill="#57b7eb"/><g fill="#4891d3"><path d="m49.385 4.615h2v18h-2z" transform="matrix(.707 -.707 .707 .707 5.131 39.617)"/><path d="m12.615 41.385h2v18h-2z" transform="matrix(.707 -.707 .707 .707 -31.64 24.385)"/></g><g fill="#a1d51c"><rect height="2" rx="1" transform="matrix(.707 -.707 .707 .707 -15.376 31.121)" width="16" x="21.879" y="33.121"/><rect height="2" rx="1" transform="matrix(.707 -.707 .707 .707 -6.891 34.636)" width="4" x="36.364" y="24.636"/></g></g></g></g></svg>