<svg height="512" viewBox="0 0 64 64" width="512" xmlns="http://www.w3.org/2000/svg"><g id="Flat"><g id="Color"><g><rect fill="#f9e109" height="38" rx="6" width="58" x="3" y="23"/><path d="m55 23h-2.5v6.5a24 24 0 0 1 -24 24h-25.5v1.5a6 6 0 0 0 6 6h46a6 6 0 0 0 6-6v-26a6 6 0 0 0 -6-6z" fill="#fcbc04"/><path d="m10 27h45a2 2 0 0 1 2 2v26a2 2 0 0 1 -2 2h-46a2 2 0 0 1 -2-2v-25a3 3 0 0 1 3-3z" fill="#fcbc04"/><path d="m55 27h-3.5v1.5a24 24 0 0 1 -24 24h-20.5v2.5a2 2 0 0 0 2 2h46a2 2 0 0 0 2-2v-26a2 2 0 0 0 -2-2z" fill="#e59730"/><rect fill="#f9e109" height="22" rx="4" width="38" x="15" y="31"/><path d="m17 29h40a2 2 0 0 0 -2-2h-45a3 3 0 0 0 -3 3v25a2 2 0 0 0 2 2v-20a8 8 0 0 1 8-8z" fill="#e59730"/><path d="m51.279 31.718a24 24 0 0 1 -23.779 20.782h-10.4a3.952 3.952 0 0 0 1.9.5h30a4 4 0 0 0 4-4v-14a3.993 3.993 0 0 0 -1.721-3.282z" fill="#fcbc04"/><path d="m14.359 37.232-3 2.5a1 1 0 0 0 -.359.768v5a1 1 0 0 0 .359.768l3 2.5a1 1 0 0 0 .641.232h8a6 6 0 0 0 0-12h-8a1 1 0 0 0 -.641.232zm12.641 5.768a4 4 0 0 1 -4 4h-2v-8h2a4 4 0 0 1 4 4z" fill="#e59730"/><path d="m22 48h-1a3 3 0 0 1 -3-3v-6a3 3 0 0 1 3-3h1a6 6 0 0 1 0 12zm-1-10a1 1 0 0 0 -1 1v6a1 1 0 0 0 1 1h1a4 4 0 0 0 0-8z" fill="#57b7eb"/><g fill="#fcbc04"><path d="m35 48a1 1 0 0 1 -1-1v-10a1 1 0 0 1 2 0v10a1 1 0 0 1 -1 1z"/><path d="m39 48a1 1 0 0 1 -1-1v-10a1 1 0 0 1 2 0v10a1 1 0 0 1 -1 1z"/><path d="m43 48a1 1 0 0 1 -1-1v-10a1 1 0 0 1 2 0v10a1 1 0 0 1 -1 1z"/><path d="m47 48a1 1 0 0 1 -1-1v-10a1 1 0 0 1 2 0v10a1 1 0 0 1 -1 1z"/></g><path d="m19 47h-5l-3-2.5v-5l3-2.5h5z" fill="#aae1f9"/><path d="m17 37v4.329a3.669 3.669 0 0 1 -6 2.835v.336l3 2.5h5v-10z" fill="#57b7eb"/><circle cx="15" cy="42" fill="#fcbc04" r="1"/><path d="m43 48a1 1 0 0 0 1-1v-1.107a24.278 24.278 0 0 1 -1.854 1.6.985.985 0 0 0 .854.507z" fill="#e59730"/><path d="m47 48a1 1 0 0 0 1-1v-6.069a24 24 0 0 1 -2 2.829v3.24a1 1 0 0 0 1 1z" fill="#e59730"/></g></g></g></svg>