<svg height="512" viewBox="0 0 64 64" width="512" xmlns="http://www.w3.org/2000/svg"><g id="Flat"><g id="Color"><g><rect fill="#c4f236" height="40" rx="10" width="58" x="3" y="12"/><path d="m53.637 12.363a9.975 9.975 0 0 1 .363 2.637 30 30 0 0 1 -30 30h-18a9.975 9.975 0 0 1 -2.637-.363 10 10 0 0 0 9.637 7.363h38a10 10 0 0 0 10-10v-20a10 10 0 0 0 -7.363-9.637z" fill="#a1d51c"/><rect fill="#57b7eb" height="50" rx="6" transform="matrix(0 1 -1 0 64 0)" width="32" x="16" y="7"/><path d="m51 16h-38a6 6 0 0 0 -6 6v20a6 6 0 0 0 6 6h38a6 6 0 0 0 6-6v-20a6 6 0 0 0 -6-6zm-41 28v-21a4 4 0 0 1 4-4h28v24.413a14.01 14.01 0 0 1 -4 .587zm42-14a13.983 13.983 0 0 1 -7 12.112v-23.112h3a4 4 0 0 1 4 4z" fill="#4891d3"/><path d="m22 12h20v40h-20z" fill="#f89c8d"/><g><path d="m22 17.757-15 15v8.486l15-15z" fill="#aae1f9"/><path d="m42 37.757v8.486l15-15v-8.486z" fill="#aae1f9"/><g fill="#57b7eb"><path d="m7 32.757v8.486l3-3v-8.486z"/><path d="m22 17.757-1.243 1.243h1.243z"/><path d="m52 27.757v2.243a13.981 13.981 0 0 1 -7 12.116v-7.359l-3 3v8.486l15-15v-8.486z"/></g></g><circle cx="32" cy="23" fill="#aae1f9" r="6"/><path d="m26 34h12v4h-12z" fill="#aae1f9"/><path d="m36 12v14a20.007 20.007 0 0 1 -14 19.082v6.918h20v-40z" fill="#f8664f"/><path d="m38 23a5.976 5.976 0 0 0 -2-4.463v7.463c0 .512-.025 1.018-.062 1.52a5.982 5.982 0 0 0 2.062-4.52z" fill="#57b7eb"/><path d="m38 34h-3.67a19.963 19.963 0 0 1 -2.33 4h6z" fill="#57b7eb"/><path d="m42 12h3v4h-3z" fill="#a1d51c"/><path d="m17.293 43.293-4.687 4.687c.131.009.261.02.394.02h2.414l3.293-3.293a1 1 0 0 0 -1.414-1.414z" fill="#aae1f9"/><path d="m45.793 21.793-3.793 3.793v2.828l5.207-5.207a1 1 0 0 0 -1.414-1.414z" fill="#aae1f9"/><path d="m36 43h-8a1 1 0 0 1 0-2h8a1 1 0 0 1 0 2z" fill="#aae1f9"/><g fill="#57b7eb"><path d="m36 47h-8a1 1 0 0 1 0-2h8a1 1 0 0 1 0 2z"/><path d="m36 41h-6.793a20.022 20.022 0 0 1 -2.014 1.558.979.979 0 0 0 .807.442h8a1 1 0 0 0 0-2z"/><path d="m19 44h-2.414l-3.98 3.98c.131.009.261.02.394.02h2.414l3.293-3.293a1 1 0 0 0 .293-.707z"/><path d="m45 25.414v-2.828l-3 3v2.828z"/></g></g></g></g></svg>