<svg height="512" viewBox="0 0 64 64" width="512" xmlns="http://www.w3.org/2000/svg"><g id="Flat"><g id="Color"><g><path d="m23.092 55.05.038-.05a258.092 258.092 0 0 1 21.219-24.036l4.2-4.2-11.315-11.312-4.2 4.2a258.092 258.092 0 0 1 -24.034 21.218l-.048.038-3.538 2.121 15.557 15.557z" fill="#c4f236"/><path d="m48.548 26.766-11.314-11.314 6.364-.707 5.657 5.657z" fill="#aae1f9"/><path d="m42.349 22.964c-4.29 4.291-11.234 12.6-16.441 18.988a10 10 0 0 1 -14.82.751l-1.947-1.947c-.048.037-.1.077-.143.114l-.048.038-3.536 2.121 15.557 15.557 2.121-3.536.038-.05a258.092 258.092 0 0 1 21.219-24.036l4.2-4.2-5.068-5.064a16.7 16.7 0 0 1 -1.132 1.264z" fill="#a1d51c"/><g fill="#57b7eb"><path d="m46.1 17.248a16.9 16.9 0 0 1 -2.62 4.451l5.067 5.067.707-6.364z"/><path d="m.778 50.222h22a0 0 0 0 1 0 0v3a1 1 0 0 1 -1 1h-20a1 1 0 0 1 -1-1v-3a0 0 0 0 1 0 0z" transform="matrix(.707 .707 -.707 .707 40.376 6.967)"/><path d="m44.548 12.452h8v6h-8z" transform="matrix(.707 .707 -.707 .707 25.146 -29.803)"/></g><path d="m30.853 21.8q-6.09 5.946-12.553 11.484l12.416 12.416q5.53-6.466 11.485-12.556z" fill="#f8664f"/><path d="m44.737 10.778.067-.048a72.519 72.519 0 0 0 9.125-7.73l7.071 7.071a72.519 72.519 0 0 0 -7.73 9.129l-.048.067z" fill="#f8664f"/><path d="m26.383 41.37 4.333 4.33q5.53-6.466 11.485-12.556l-4.821-4.82c-3.559 4.031-7.603 8.89-10.997 13.046z" fill="#cc5144"/><circle cx="30.87" cy="33.13" fill="#aae1f9" r="4"/><path d="m33.7 35.958a4 4 0 0 0 .855-4.379c-1.522 1.776-3.074 3.621-4.583 5.437a3.982 3.982 0 0 0 3.728-1.058z" fill="#57b7eb"/><path d="m57.584 9.746a6.513 6.513 0 0 1 -9.536.343l-1.019-1.019c-.732.566-1.472 1.122-2.225 1.66l-.067.048 8.485 8.485.048-.067a72.519 72.519 0 0 1 7.73-9.125l-1.955-1.955c-.494.537-.983 1.084-1.461 1.63z" fill="#cc5144"/><g fill="#4891d3"><path d="m8.364 49.808h4v2h-4z" transform="matrix(.707 -.707 .707 .707 -32.891 22.21)"/><path d="m11.192 52.636h4v2h-4z" transform="matrix(.707 -.707 .707 .707 -34.062 25.038)"/><path d="m5.535 46.979h4.001v2h-4.001z" transform="matrix(.707 -.707 .707 .707 -31.719 19.381)"/><path d="m14.021 55.465h4v2h-4z" transform="matrix(.707 -.707 .707 .707 -35.234 27.866)"/></g></g></g></g></svg>