<svg height="512" viewBox="0 0 64 64" width="512" xmlns="http://www.w3.org/2000/svg"><g id="Flat"><g id="Color"><g><path d="m17 25h44l-4-6h-44z" fill="#aae1f9"/><path d="m53 3h-36a4 4 0 0 0 -4 4v12h44v-12a4 4 0 0 0 -4-4zm-11 12h-14a2 2 0 0 1 0-4h4v-1a3 3 0 0 1 6 0v1h4a2 2 0 0 1 0 4z" fill="#aae1f9"/><path d="m9 25h44v36h-44z" fill="#f9e109"/><path d="m61 61h-8v-36l4-6 4 6z" fill="#e59730"/><path d="m61 61h-4v-42l4 6z" fill="#fcbc04"/><path d="m53 25h-44l4-6h44z" fill="#f9e109"/><path d="m43 34a21 21 0 0 1 -21 21h-8a5 5 0 0 0 -5 5v1h44v-36h-1a9 9 0 0 0 -9 9z" fill="#fcbc04"/><path d="m14 37h34v20h-34z" fill="#57b7eb"/><path d="m61 61h-8l4-6z" fill="#f9e109"/><path d="m30.172 37-16.172 16.172v3.828h1.828l20-20z" fill="#aae1f9"/><path d="m22 55h-8v2h34v-20h-5.239a20.986 20.986 0 0 1 -20.761 18z" fill="#4891d3"/><path d="m48 37h-1.828l-20 20h5.656l16.172-16.172z" fill="#aae1f9"/><path d="m46.172 37-4.662 4.661a21.03 21.03 0 0 1 -11.916 11.916l-3.422 3.423h5.656l16.172-16.172v-3.828z" fill="#57b7eb"/><path d="m51.947 19a7.99 7.99 0 0 1 -6.228 3h-34.719l-2 3h44l4-6z" fill="#fcbc04"/><path d="m53 3h-3.872a15.024 15.024 0 0 1 -6.728 8.04 2 2 0 0 1 -.4 3.96h-14a2 2 0 0 1 -2-2h-13v6h44v-12a4 4 0 0 0 -4-4z" fill="#57b7eb"/><g><path d="m24.97 37-4.48 4.49a1.042 1.042 0 0 1 -.71.29 1.024 1.024 0 0 1 -.71-.29 1.008 1.008 0 0 1 0-1.42l3.07-3.07z" fill="#aae1f9"/><path d="m43.43 54.43-2.57 2.57h-2.83l3.98-3.99a1 1 0 0 1 1.42 1.42z" fill="#57b7eb"/><path d="m24.97 37-4.48 4.49a1.042 1.042 0 0 1 -.71.29 1.024 1.024 0 0 1 -.71-.29 1.008 1.008 0 0 1 0-1.42l3.07-3.07z" fill="#aae1f9"/><path d="m43.43 54.43-2.57 2.57h-2.83l3.98-3.99a1 1 0 0 1 1.42 1.42z" fill="#57b7eb"/></g></g></g></g></svg>