<svg xmlns="http://www.w3.org/2000/svg" xmlns:xlink="http://www.w3.org/1999/xlink" width="369" height="369" viewBox="0 0 369 369">
  <defs>
    <clipPath id="clip-path">
      <circle id="Elipse_70" data-name="Elipse 70" cx="184.5" cy="184.5" r="184.5" transform="translate(0.254)" fill="#202447" opacity="0.1"/>
    </clipPath>
  </defs>
  <g id="hb" transform="translate(-0.254)">
    <circle id="Elipse_69" data-name="Elipse 69" cx="184.5" cy="184.5" r="184.5" transform="translate(0.254)" fill="#f6ebce"/>
    <g id="Grupo_de_máscara_50" data-name="Grupo de máscara 50" clip-path="url(#clip-path)">
      <g id="Grupo_1938" data-name="Grupo 1938" transform="translate(34.895 48.623) rotate(-3)">
        <path id="Caminho_546" data-name="Caminho 546" d="M1493.023,572.1c-59.31,0-100.4-59.382-79.29-114.807,9.636-25.3,24.117-46.681,46.025-53.639,65.493-20.8,148.359,5.293,148.359,5.293s.125-2.277,6.716,1.454c75.419,42.688,48.32,161.7-38.341,161.7Z" transform="translate(-1408.124 -152.043)" fill="#202447"/>
        <g id="Grupo_1616" data-name="Grupo 1616" transform="translate(46.374 32.472)">
          <path id="Caminho_547" data-name="Caminho 547" d="M1600.615,303.515c5.475,45.755,11.875,150.943-45.609,147.835v35.706l38.975,15.561s-20.131,47.915-95.51,38.988-64.247-44.19-64.247-44.19l38.2-11.938,1.252-85.7s-22.448,1.663-21.819-26.778c.589-26.745,24.793-23.8,24.793-23.8l1.432-47.946a19.077,19.077,0,0,1,19.068-18.508h80.027A23.591,23.591,0,0,1,1600.615,303.515Z" transform="translate(-1433.646 -276.732)" fill="#e5c2a5"/>
          <g id="Grupo_1603" data-name="Grupo 1603" transform="translate(68.655 50.228)">
            <path id="Caminho_548" data-name="Caminho 548" d="M1511.069,318.79c-5.678-.173-10.768-3.965-16.337-5.322-7.344-1.79-14.24-.77-21.557-1.526a1.8,1.8,0,0,1-.474-3.521c6.736-2.424,15.168-1.136,22.013.465,5.7,1.336,13.938,3.278,17.094,8.615a.865.865,0,0,1-.74,1.29Z" transform="translate(-1471.43 -307.076)" fill="#240039"/>
          </g>
          <g id="Grupo_1605" data-name="Grupo 1605" transform="translate(68.925 61.083)">
            <g id="Grupo_1604" data-name="Grupo 1604" transform="translate(0 0.557)">
              <path id="Caminho_549" data-name="Caminho 549" d="M1471.578,320.62a20.695,20.695,0,0,1,35.24,6.425c-5.631,2-11.469,3.932-17.438,3.609s-15.479-4.528-17.8-10.034" transform="translate(-1471.578 -313.357)" fill="#f1dad9"/>
            </g>
            <path id="Caminho_550" data-name="Caminho 550" d="M1476.942,318.21a10.269,10.269,0,0,0,2.3,10.208,6.806,6.806,0,0,0,8.934.436c2.645-2.108,3.923-6.34,3-9.948a10.536,10.536,0,0,0-7.884-5.738C1477.353,312.136,1476.942,318.21,1476.942,318.21Z" transform="translate(-1467.596 -313.05)" fill="#240039"/>
          </g>
          <g id="Grupo_1607" data-name="Grupo 1607" transform="translate(131.594 66.395)">
            <g id="Grupo_1606" data-name="Grupo 1606" transform="translate(0 0.477)">
              <path id="Caminho_551" data-name="Caminho 551" d="M1506.8,327.187c2.653-6.418,8.547-10.742,14.912-10.944s12.959,3.732,16.686,9.95c-4.315,3.158-8.823,6.289-13.989,7.215s-15.023-1.506-18.339-6.474" transform="translate(-1506.068 -316.236)" fill="#f1dad9"/>
            </g>
            <path id="Caminho_552" data-name="Caminho 552" d="M1510.8,322.3c-.145,3.718,1.742,7.815,4.435,9.63a5.369,5.369,0,0,0,7.722-1.434c1.744-2.64,1.806-7.1.147-10.481a9.717,9.717,0,0,0-8.111-4.034C1509.675,316.2,1510.8,322.3,1510.8,322.3Z" transform="translate(-1502.283 -315.973)" fill="#240039"/>
          </g>
          <g id="Grupo_1608" data-name="Grupo 1608" transform="translate(128.727 56.439)">
            <path id="Caminho_553" data-name="Caminho 553" d="M1541.859,318.674c-5.809-2.776-12.2-4.668-18.7-4.4-6.113.247-10.989,2.693-16.667,4.572a1.585,1.585,0,0,1-1.53-2.631c10.161-8.662,27.75-6.718,37.9.741a1,1,0,0,1-1.007,1.723Z" transform="translate(-1504.49 -310.494)" fill="#240039"/>
          </g>
          <g id="Grupo_1609" data-name="Grupo 1609" transform="translate(24.739 80.018)">
            <path id="Caminho_554" data-name="Caminho 554" d="M1453.879,324.874c.614,2.637,2.268,4.793,3.436,7.217a43.141,43.141,0,0,1,3,9.707q1.821-.5,3.642-1c-1.843-7.317-11.426-9.73-15.583-2.825-3.614,6,2.153,15.1,9.2,12.1,1.343-.57.818-2.578-.383-2.934-2.816-.83-6.863-1.421-5.925-5.865,1.137-5.408,7.869-3.919,9.054.531a1.9,1.9,0,0,0,3.709-.5c.222-6.171-2.417-15.412-8.8-17.763-.825-.3-1.515.6-1.343,1.343Z" transform="translate(-1447.261 -323.471)" fill="#1f2235"/>
          </g>
          <path id="Caminho_555" data-name="Caminho 555" d="M1588.915,330.824a139.734,139.734,0,0,1-86-40.487c-1.154,4.881-2.339,9.846-4.882,14.169s-6.705,7.982-11.673,8.673-10.544-2.36-11.578-7.268c-1.266,14.658-6.35,45.244-18.892,45.905-1.526-16.437.76-38.081.049-54.575-.147-3.412-.111-7.268,2.339-9.65a11.846,11.846,0,0,1,5.544-2.537c26.167-6.607,53.552-5.9,80.531-5.155,9.409.26,19.308.66,27.344,5.56,7.244,4.419,12.062,12.06,14.733,20.113s3.414,16.6,4.139,25.053" transform="translate(-1415.913 -279.433)" fill="#363636"/>
          <g id="Grupo_1610" data-name="Grupo 1610" transform="translate(65.666 85.128)" opacity="0.21">
            <path id="Caminho_556" data-name="Caminho 556" d="M1475.426,326.95a28.283,28.283,0,0,1,25.289,6.91,4.983,4.983,0,0,1,1.9,3.289c.042,2.607-3.276,3.725-5.876,3.925a72.214,72.214,0,0,1-16.613-.64,17.848,17.848,0,0,1-6.661-2.07,7.237,7.237,0,0,1-3.679-5.644,5.456,5.456,0,0,1,8.091-4.957" transform="translate(-1469.785 -326.283)" fill="#b56158"/>
          </g>
          <g id="Grupo_1611" data-name="Grupo 1611" transform="translate(66.801 59.564)">
            <path id="Caminho_557" data-name="Caminho 557" d="M1507.685,329.2c-8.7-12.87-20.61-17.424-34.236-7.988-1.87,1.3-4.145-1.644-2.437-3.156,11.847-10.508,35.062-6.7,38.9,10.206a1.222,1.222,0,0,1-2.222.938Z" transform="translate(-1470.409 -312.214)" fill="#1f2235"/>
          </g>
          <g id="Grupo_1612" data-name="Grupo 1612" transform="translate(129.276 64.434)">
            <path id="Caminho_558" data-name="Caminho 558" d="M1541.08,327.215c-1.077-7.37-9.936-12.038-16.786-12.307a20.8,20.8,0,0,0-19.242,11.92c-1.324,2.753,2.782,5.175,4.117,2.406,3.023-6.271,8.533-10.593,15.775-9.992,6.647.551,9.676,4.944,14.129,9.14a1.211,1.211,0,0,0,2.006-1.167Z" transform="translate(-1504.792 -314.894)" fill="#1f2235"/>
          </g>
          <g id="Grupo_1613" data-name="Grupo 1613" transform="translate(92.04 117.276)">
            <path id="Caminho_559" data-name="Caminho 559" d="M1484.408,345.116c5.157,8.954,17.378,17.705,28.088,12.321a1.271,1.271,0,0,0-.638-2.351c-4.724-.1-8.874.561-13.517-1.065-5.04-1.77-9.855-5.039-12.614-9.677a.765.765,0,0,0-1.319.772Z" transform="translate(-1484.299 -343.976)" fill="#1f2235"/>
          </g>
          <g id="Grupo_1614" data-name="Grupo 1614" transform="translate(40.074 66.396)" opacity="0.38">
            <path id="Caminho_560" data-name="Caminho 560" d="M1458.954,320.867c2.429,7.443,4.891,14.956,8.909,21.674s9.785,12.668,17.105,15.441c7.1,2.687,14.949,2.179,22.531,2.662,9.376.6,18.585,2.755,27.939,3.654s19.175.436,27.519-3.879c5.077-2.627,10.875-6.7,15.883-3.95a10.4,10.4,0,0,1,4.928,10.473c-5.282,30-9.728,46.589-31.495,56.168s-52.534,7.114-74.095-2.918c-8.429-3.921-16.828-9.49-20.338-18.1-2.344-5.742-2.224-12.149-2.068-18.347q.848-33.889,1.7-67.773" transform="translate(-1455.7 -315.974)" fill="#363636"/>
          </g>
          <g id="Grupo_1615" data-name="Grupo 1615" transform="translate(107.821 69.597)">
            <path id="Caminho_561" data-name="Caminho 561" d="M1502.529,318.349c-1.661,6.678-1.272,13.84-1.439,20.7q-.125,5.116-.242,10.235c-.053,2.457.027,14.006-4.742,8.567-1.343-1.534-3.985.478-2.84,2.19,2.731,4.086,8.229,6.7,10.368.785,2-5.531.636-14.195.816-20.073.225-7.408,1.126-15.094-.267-22.4a.864.864,0,0,0-1.653,0Z" transform="translate(-1492.985 -317.735)" fill="#1f2235"/>
          </g>
        </g>
        <path id="Caminho_562" data-name="Caminho 562" d="M1540.814,264.3c15.156,4.851,28.576,18.217,28.653,34.131L1458.482,346.1c-5.427-3.865-7.492-12.125-7.294-21.606.54-25.8,17.653-48.18,41.852-57.153C1506.779,262.245,1524.064,258.944,1540.814,264.3Z" transform="translate(-1372.948 -261.562)" fill="#fff"/>
        <path id="Caminho_563" data-name="Caminho 563" d="M1455.2,338.54s131.955-90.352,157.162-62.344c18.281,20.309-21.67,54.113-21.67,54.113l-.721-2.635c-4.341-15.8-20.058-26.116-36.119-22.882a36.364,36.364,0,0,0-6.218,1.819C1523.83,316.038,1455.2,338.54,1455.2,338.54Z" transform="translate(-1369.663 -254.006)" fill="#365aac"/>
      </g>
    </g>
  </g>
</svg>
