<svg xmlns="http://www.w3.org/2000/svg" xmlns:xlink="http://www.w3.org/1999/xlink" width="369" height="369" viewBox="0 0 369 369">
  <defs>
    <clipPath id="clip-path">
      <circle id="Elipse_70" data-name="Elipse 70" cx="184.5" cy="184.5" r="184.5" transform="translate(0.254)" fill="#202447" opacity="0.1"/>
    </clipPath>
  </defs>
  <g id="mb" transform="translate(-0.254)">
    <circle id="Elipse_69" data-name="Elipse 69" cx="184.5" cy="184.5" r="184.5" transform="translate(0.254)" fill="#fee4ea"/>
    <g id="Grupo_de_máscara_50" data-name="Grupo de máscara 50" clip-path="url(#clip-path)">
      <g id="Grupo_1937" data-name="Grupo 1937" transform="translate(70.656 46.078)">
        <path id="Caminho_564" data-name="Caminho 564" d="M1377.347,590.688c-60.6,0-102.2-62.033-78.065-117.613,9.2-21.179,23.792-37.917,46.784-42.086,62.414-11.316,147.57,7.822,147.57,7.822s15.356.172,29.751,23.013c35.266,55.958-6.149,128.864-72.292,128.864Z" transform="translate(-1292.313 -209.72)" fill="#bb4f3a"/>
        <g id="Grupo_1638" data-name="Grupo 1638" transform="translate(4.389)">
          <g id="Grupo_1618" data-name="Grupo 1618" transform="translate(182.832 101.676)">
            <path id="Caminho_565" data-name="Caminho 565" d="M1399.616,493.492c18.475-11.841,31.492-33.263,24.341-55.61a40.649,40.649,0,0,0-7.707-13.687c-6.98-8.452-11.169-14.255-8.918-25.668,2.289-11.615,7.225-23.778-.815-34.273-2.371-3.1-8.432-1.539-6.924,2.919,3.965,11.726-1.241,21.969-2.52,33.593-1.18,10.734,2.233,18.414,9.6,26.044,20.246,20.973,11.233,46.8-9.149,63.971-1.5,1.264.451,3.763,2.092,2.712Z" transform="translate(-1396.844 -362.636)" fill="#a67440"/>
          </g>
          <path id="Caminho_566" data-name="Caminho 566" d="M1341.629,531.12c-7.46-1.381-15.009-2.79-21.886-5.993s-13.116-8.447-15.9-15.5c-5.61-14.187,3.96-29.414,6.469-44.463,3.455-20.694-6.732-41.239-7.23-62.214-.376-15.813,4.755-31.177,9.826-46.157,3.686-10.888,7.578-22.13,15.406-30.544,7.653-8.228,18.362-12.939,29.128-16.164,18.335-5.495,39.491-6.9,55.451,3.674,5.558,3.682,10.521,8.8,17.049,10.152,5.789,1.2,11.857-.813,17.676.224,11.225,2,17.459,14.318,19.266,25.576s1.057,23.237,6.077,33.473c5.61,11.443,18.161,20.33,17.83,33.068-.4,15.417-19.528,24.475-22.2,39.663-1.5,8.5,2.572,16.954,7.18,24.253s10,14.465,11.644,22.94c2.357,12.2-3.939,24.983-13.689,32.679s-22.4,10.9-34.8,11.59" transform="translate(-1288.957 -305.867)" fill="#64380c"/>
          <path id="Caminho_567" data-name="Caminho 567" d="M1316.936,341.024c-5.054,42.235-10.959,139.335,42.1,136.465v32.959l-32.043,16.481s14.649,42.115,84.229,33.876,67.752-37.537,67.752-37.537l-43.947-13.734-.915-79.653s20.722,1.531,20.142-24.72c-.544-24.688-22.89-21.973-22.89-21.973l-1.32-44.259a17.609,17.609,0,0,0-17.6-17.083H1338.57A21.774,21.774,0,0,0,1316.936,341.024Z" transform="translate(-1279.727 -293.226)" fill="#daaf8b"/>
          <g id="Grupo_1619" data-name="Grupo 1619" transform="translate(90.585 69.44)">
            <path id="Caminho_568" data-name="Caminho 568" d="M1346.127,355.449c5.242-.158,9.94-3.659,15.082-4.911,6.779-1.651,13.145-.711,19.9-1.41a1.662,1.662,0,0,0,.439-3.249c-6.217-2.239-14-1.05-20.319.428-5.264,1.232-12.867,3.025-15.781,7.95a.8.8,0,0,0,.683,1.191Z" transform="translate(-1345.34 -344.637)" fill="#a67440"/>
          </g>
          <g id="Grupo_1621" data-name="Grupo 1621" transform="translate(95.185 79.46)">
            <g id="Grupo_1620" data-name="Grupo 1620" transform="translate(0 0.515)">
              <path id="Caminho_569" data-name="Caminho 569" d="M1380.437,357.222a19.1,19.1,0,0,0-32.529,5.932c5.2,1.848,10.587,3.629,16.1,3.33s14.289-4.179,16.433-9.262" transform="translate(-1347.908 -350.52)" fill="#f1dad9"/>
            </g>
            <path id="Caminho_570" data-name="Caminho 570" d="M1365.9,354.994a9.471,9.471,0,0,1-2.121,9.423,6.284,6.284,0,0,1-8.25.4,9.3,9.3,0,0,1-2.772-9.183,9.725,9.725,0,0,1,7.279-5.3C1365.526,349.388,1365.9,354.994,1365.9,354.994Z" transform="translate(-1344.284 -350.232)" fill="#303558"/>
          </g>
          <g id="Grupo_1623" data-name="Grupo 1623" transform="translate(40.022 84.363)">
            <g id="Grupo_1622" data-name="Grupo 1622" transform="translate(0 0.44)">
              <path id="Caminho_571" data-name="Caminho 571" d="M1346.276,363.323c-2.45-5.923-7.891-9.917-13.766-10.1s-11.962,3.444-15.4,9.184c3.983,2.914,8.146,5.8,12.913,6.659s13.866-1.388,16.927-5.975" transform="translate(-1317.109 -353.215)" fill="#f1dad9"/>
            </g>
            <path id="Caminho_572" data-name="Caminho 572" d="M1334.043,358.809c.134,3.432-1.609,7.213-4.094,8.889a4.956,4.956,0,0,1-7.128-1.324c-1.61-2.436-1.668-6.55-.136-9.673a8.971,8.971,0,0,1,7.488-3.724C1335.079,353.178,1334.043,358.809,1334.043,358.809Z" transform="translate(-1313.578 -352.97)" fill="#303558"/>
          </g>
          <g id="Grupo_1624" data-name="Grupo 1624" transform="translate(36.662 75.172)">
            <path id="Caminho_573" data-name="Caminho 573" d="M1316.585,355.389c5.363-2.563,11.262-4.309,17.259-4.066,5.642.229,10.144,2.486,15.387,4.221a1.465,1.465,0,0,0,1.413-2.43c-9.383-8-25.617-6.2-34.988.684a.922.922,0,0,0,.93,1.59Z" transform="translate(-1315.233 -347.838)" fill="#a67440"/>
          </g>
          <g id="Grupo_1625" data-name="Grupo 1625" transform="translate(147.002 96.937)">
            <path id="Caminho_574" data-name="Caminho 574" d="M1384.975,360.046c-5.885,2.167-8.33,10.7-8.124,16.4a1.75,1.75,0,0,0,3.423.462c1.094-4.105,7.309-5.479,8.359-.489.865,4.1-2.869,4.65-5.47,5.416-1.1.324-1.594,2.182-.353,2.708,6.489,2.762,11.83-5.62,8.488-11.167-3.833-6.369-12.682-4.157-14.384,2.608q1.682.462,3.36.924a39.978,39.978,0,0,1,2.769-8.959c1.076-2.239,2.6-4.229,3.17-6.661.161-.69-.478-1.521-1.238-1.241Z" transform="translate(-1376.839 -359.99)" fill="#1f2235"/>
          </g>
          <path id="Caminho_575" data-name="Caminho 575" d="M1313.1,366.188a128.986,128.986,0,0,0,79.392-37.374c1.064,4.506,2.158,9.09,4.508,13.08s6.186,7.368,10.773,8,9.732-2.176,10.689-6.707c1.168,13.531,5.86,41.765,17.438,42.374,1.41-15.172-.7-35.153-.045-50.375.135-3.15.1-6.709-2.158-8.909a10.939,10.939,0,0,0-5.119-2.343c-24.154-6.1-49.433-5.448-74.337-4.759-8.685.242-17.821.609-25.241,5.133-6.686,4.08-11.133,11.131-13.6,18.568s-3.152,15.321-3.824,23.126" transform="translate(-1281.462 -295.676)" fill="#64380c"/>
          <g id="Grupo_1626" data-name="Grupo 1626" transform="translate(100.414 101.656)" opacity="0.21">
            <path id="Caminho_576" data-name="Caminho 576" d="M1375.928,363.241a26.1,26.1,0,0,0-23.344,6.376,4.6,4.6,0,0,0-1.755,3.036c-.039,2.407,3.023,3.437,5.425,3.623a66.781,66.781,0,0,0,15.335-.589,16.485,16.485,0,0,0,6.147-1.913,6.671,6.671,0,0,0,3.4-5.208,5.037,5.037,0,0,0-7.47-4.574" transform="translate(-1350.828 -362.625)" fill="#b56158"/>
          </g>
          <g id="Grupo_1627" data-name="Grupo 1627" transform="translate(80.796 87.317)">
            <path id="Caminho_577" data-name="Caminho 577" d="M1340.551,355.185c-1.191,6.26-.487,12.759-.293,19.105.177,5.862-1.2,14.592.8,20.1,1.972,5.447,7.042,3.057,9.573-.724,1.044-1.564-1.37-3.453-2.622-2.024-4.4,5.022-4.329-5.64-4.381-7.908q-.1-4.726-.22-9.45c-.156-6.351.21-12.917-1.329-19.105a.8.8,0,0,0-1.526,0Z" transform="translate(-1339.874 -354.619)" fill="#1f2235"/>
          </g>
          <g id="Grupo_1628" data-name="Grupo 1628" transform="translate(89.693 126.362)" opacity="0.21">
            <path id="Caminho_578" data-name="Caminho 578" d="M1349.03,390.468c1.981-1.438,2.033-4.087,3.752-5.794,1.6-1.589,4.689-1.92,5.687-3.98a2.584,2.584,0,0,0-.381-2.964c-2.545-3.167-7.918.122-9.935,2.314-2.138,2.33-4.968,7.263-2.084,10.042a2.478,2.478,0,0,0,2.962.382Z" transform="translate(-1344.842 -376.419)" fill="#b56158"/>
          </g>
          <g id="Grupo_1629" data-name="Grupo 1629" transform="translate(91.139 127.557)" opacity="0.21">
            <path id="Caminho_579" data-name="Caminho 579" d="M1347.565,394.74c2.085-.389,4.032-.428,6.009-1.288a21.752,21.752,0,0,0,4.707-2.81c2.914-2.264,6.448-6.163,6.349-10.062-.07-2.7-3.888-4.879-5.855-2.425-1.9,2.375-2.562,5.477-4.49,7.94-1.768,2.26-4.732,4.927-7.537,5.687-1.931.523-1.1,3.315.817,2.959Z" transform="translate(-1345.649 -377.086)" fill="#b56158"/>
          </g>
          <g id="Grupo_1630" data-name="Grupo 1630" transform="translate(84.753 121.775)">
            <path id="Caminho_580" data-name="Caminho 580" d="M1343.786,396.361c9.715-2.142,20.742-10.967,23.536-20.773a1.417,1.417,0,0,0-2.577-1.085c-2.876,4.238-5.115,8.472-9.054,11.925-3.861,3.387-8.251,5.5-12.924,7.513-1.435.618-.373,2.728,1.019,2.42Z" transform="translate(-1342.084 -373.858)" fill="#1f2235"/>
          </g>
          <g id="Grupo_1631" data-name="Grupo 1631" transform="translate(93.179 78.057)">
            <path id="Caminho_581" data-name="Caminho 581" d="M1348.873,365.131c8.033-11.882,19.028-16.085,31.6-7.372,1.725,1.195,3.824-1.521,2.25-2.916-10.938-9.7-32.364-6.179-35.905,9.423a1.128,1.128,0,0,0,2.051.865Z" transform="translate(-1346.788 -349.449)" fill="#1f2235"/>
          </g>
          <g id="Grupo_1632" data-name="Grupo 1632" transform="translate(38.491 82.554)">
            <path id="Caminho_582" data-name="Caminho 582" d="M1318.122,364.408c4.111-3.872,6.908-7.929,13.041-8.438,6.686-.553,11.773,3.435,14.565,9.224,1.229,2.552,5.024.322,3.8-2.221a19.2,19.2,0,0,0-17.764-11c-6.324.245-14.5,4.556-15.5,11.357a1.119,1.119,0,0,0,1.854,1.078Z" transform="translate(-1316.254 -351.96)" fill="#1f2235"/>
          </g>
          <g id="Grupo_1633" data-name="Grupo 1633" transform="translate(0 56.827)">
            <path id="Caminho_583" data-name="Caminho 583" d="M1319.723,338.264c-7.216,21.625-21.389,40.56-24.428,63.605-1.2,9.088-.484,18.417,3.278,26.853,1.755,3.935,4.25,7.218,6.618,10.78,5.085,7.657,5.359,13.069,1.442,21.419-6.806,14.52-7.639,30.559,3.8,43.284,11.314,12.588,31.725,15.088,44.962,4.265,2.513-2.058-.194-6.79-3.245-5.57-19.111,7.635-43.779,1.415-43.8-23.208-.011-14.45,13.377-24.163,5.867-38.928-4.042-7.943-10.093-13.743-11.851-22.9-1.721-8.968-.331-18.367,2.133-27.048,5.058-17.816,14.458-33.446,17.031-52.051a.936.936,0,0,0-1.8-.5Z" transform="translate(-1294.763 -337.595)" fill="#9b6613"/>
          </g>
          <g id="Grupo_1634" data-name="Grupo 1634" transform="translate(139.182 31.262)">
            <path id="Caminho_584" data-name="Caminho 584" d="M1373.19,324.809c12.373.33,24.5,9.115,28.884,20.534,3.842,10.01,2.427,20.968,4.773,31.306a31.471,31.471,0,0,0,10.911,17.971c5.079,4.227,13,8.087,12.338,16.354-.691,8.633-6.752,14.932-12.091,21.111-1.959,2.269,1.123,5.452,3.324,3.324,8.311-8.029,16.795-19.25,11.8-31.438-1.954-4.77-5.876-7.847-9.627-11.139-6.806-5.97-10.379-11.491-12.229-20.464-2.608-12.661-1.333-26.151-9.971-36.8-7.381-9.095-16.812-12.14-28.114-12.247a.744.744,0,0,0,0,1.487Z" transform="translate(-1372.473 -323.322)" fill="#9b6613"/>
          </g>
          <g id="Grupo_1635" data-name="Grupo 1635" transform="translate(146.34 36.462)">
            <path id="Caminho_585" data-name="Caminho 585" d="M1376.57,326.746c14.711,12.9,19.2,28.218,19.542,47.208a1.272,1.272,0,0,0,2.542,0c1.445-17.654-8.69-36.3-21.643-47.649-.3-.263-.741.177-.44.441Z" transform="translate(-1376.47 -326.225)" fill="#9b6613"/>
          </g>
          <g id="Grupo_1636" data-name="Grupo 1636" transform="translate(11.666 18.154)">
            <path id="Caminho_586" data-name="Caminho 586" d="M1401.526,316.388c-14.909,21.131-37.409,31.788-61.026,40.4-17.615,6.428-26.841,17.615-24.324,37.01,1.594,12.258,7.965,23.522,8.842,35.921,1.039,14.624-7.071,23.439-15.224,34.358-10.452,14-12.747,32.606,1.483,44.968a1.44,1.44,0,0,0,2.034-2.035c-7.927-10.046-10.451-23.054-4.2-34.576,4.6-8.47,12.027-15.059,16.171-23.81,8.692-18.347-2.964-36.955-4.917-55.392-1.585-14.986,3.913-25.632,18.208-31.225,8.146-3.188,16.433-5.787,24.367-9.523,16.54-7.789,31.268-18.937,40.032-35.25a.84.84,0,0,0-1.449-.847Z" transform="translate(-1301.277 -316.003)" fill="#9b6613"/>
          </g>
          <g id="Grupo_1637" data-name="Grupo 1637" transform="translate(36.082 221.581)">
            <path id="Caminho_587" data-name="Caminho 587" d="M1315.163,430.111a.264.264,0,0,0,0-.528.264.264,0,0,0,0,.528Z" transform="translate(-1314.909 -429.583)" fill="#c8974b"/>
          </g>
        </g>
      </g>
    </g>
  </g>
</svg>
